<svg width="256" height="256" viewBox="0 0 256 256" fill="none" xmlns="http://www.w3.org/2000/svg">
<path d="M188.466 76.2715H171.466V77.3944C171.466 77.8367 171.379 78.2748 171.21 78.6836C171.041 79.0924 170.793 79.4638 170.48 79.7766C170.167 80.0894 169.796 80.3375 169.387 80.5067C168.978 80.6759 168.54 80.763 168.098 80.7628L168.097 85.3209H188.466C202.943 85.3209 214.722 97.0992 214.722 111.577V161.68C214.722 176.157 202.943 187.936 188.466 187.936H171.466V189.058C171.466 189.501 171.379 189.939 171.21 190.348C171.041 190.756 170.793 191.128 170.48 191.441C170.167 191.753 169.796 192.002 169.387 192.171C168.978 192.34 168.54 192.427 168.098 192.427L168.097 196.984H188.466C207.933 196.984 223.77 181.146 223.77 161.679V111.576C223.77 92.1094 207.933 76.2715 188.466 76.2715Z" fill="#FBD7B5"/>
<path d="M158.188 56.061C151.846 39.7763 135.998 28.7368 118.219 28.7368C105.609 28.7368 93.6872 34.2637 85.5101 43.901C85.0411 44.454 84.4062 44.8408 83.6998 45.0039C82.9933 45.167 82.2531 45.0978 81.5892 44.8065C78.3437 43.3767 74.8356 42.6397 71.289 42.6426C61.707 42.6426 53.1323 47.8807 48.7027 56.061H158.188ZM164.729 77.3939V62.7974H41.7192V98.7937H164.729V88.6884C164.73 87.7952 165.085 86.9387 165.716 86.307C166.348 85.6754 167.204 85.3204 168.097 85.32V80.7619C167.204 80.7616 166.348 80.4067 165.716 79.7752C165.084 79.1436 164.729 78.2871 164.729 77.3939Z" fill="white"/>
<path d="M164.729 189.058V105.531H41.7192V226.351H164.729V200.353C164.73 199.46 165.085 198.603 165.716 197.972C166.348 197.34 167.204 196.985 168.097 196.985V192.427C167.204 192.427 166.347 192.072 165.716 191.44C165.084 190.809 164.729 189.952 164.729 189.058ZM55.1929 216.246C55.1929 217.139 54.838 217.996 54.2063 218.627C53.5746 219.259 52.7179 219.614 51.8245 219.614C50.9311 219.614 50.0744 219.259 49.4427 218.627C48.811 217.996 48.4561 217.139 48.4561 216.246V142.584C48.4561 141.69 48.811 140.834 49.4427 140.202C50.0744 139.57 50.9311 139.215 51.8245 139.215C52.7179 139.215 53.5746 139.57 54.2063 140.202C54.838 140.834 55.1929 141.69 55.1929 142.584V216.246ZM55.1929 129.11C55.1929 130.003 54.838 130.86 54.2063 131.492C53.5746 132.123 52.7179 132.478 51.8245 132.478C50.9311 132.478 50.0744 132.123 49.4427 131.492C48.811 130.86 48.4561 130.003 48.4561 129.11V115.636C48.4561 114.743 48.811 113.886 49.4427 113.254C50.0744 112.623 50.9311 112.268 51.8245 112.268C52.7179 112.268 53.5746 112.623 54.2063 113.254C54.838 113.886 55.1929 114.743 55.1929 115.636V129.11ZM74.9206 195.311C72.9396 195.311 71.3277 193.699 71.3277 191.718C71.3277 189.737 72.9396 188.125 74.9206 188.125C76.9017 188.125 78.5136 189.737 78.5136 191.718C78.5136 193.699 76.9022 195.311 74.9206 195.311ZM83.9031 181.837C81.922 181.837 80.3101 180.225 80.3101 178.244C80.3101 176.263 81.922 174.651 83.9031 174.651C85.8842 174.651 87.4961 176.263 87.4961 178.244C87.4961 180.225 85.8846 181.837 83.9031 181.837ZM137.798 141.416C135.817 141.416 134.205 139.804 134.205 137.823C134.205 135.842 135.817 134.23 137.798 134.23C139.779 134.23 141.391 135.842 141.391 137.823C141.391 139.804 139.779 141.416 137.798 141.416Z" fill="#F59B45"/>
<path d="M188.466 69.5347H171.466V59.4294C171.466 58.9871 171.379 58.549 171.21 58.1403C171.041 57.7315 170.792 57.3602 170.48 57.0473C170.167 56.7345 169.795 56.4864 169.387 56.3172C168.978 56.148 168.54 56.0609 168.098 56.061H165.346C158.69 35.8851 139.668 22 118.219 22C104.438 22 91.3689 27.7034 81.9903 37.7278C78.5524 36.5179 74.9337 35.9018 71.2891 35.9057C57.9825 35.9057 46.2105 43.9091 41.2594 56.061H38.3509C37.4575 56.061 36.6007 56.4159 35.969 57.0476C35.3373 57.6793 34.9825 58.5361 34.9825 59.4294V226.351H29.3684C28.4751 226.351 27.6183 226.706 26.9866 227.337C26.3549 227.969 26 228.826 26 229.719C26 230.613 26.3549 231.469 26.9866 232.101C27.6183 232.733 28.4751 233.088 29.3684 233.088H177.08C177.974 233.088 178.831 232.733 179.462 232.101C180.094 231.469 180.449 230.613 180.449 229.719C180.449 228.826 180.094 227.969 179.462 227.337C178.831 226.706 177.974 226.351 177.08 226.351H171.466V203.721H188.466C211.648 203.721 230.508 184.861 230.508 161.68V111.576C230.507 88.3947 211.648 69.5347 188.466 69.5347ZM223.77 161.679C223.77 181.147 207.932 196.984 188.466 196.984H168.098C167.655 196.984 167.217 197.071 166.808 197.24C166.4 197.409 166.028 197.657 165.715 197.97C165.402 198.283 165.154 198.655 164.985 199.063C164.816 199.472 164.729 199.91 164.729 200.353V226.351H41.7193V105.531H164.73V189.058C164.729 189.501 164.816 189.939 164.986 190.348C165.155 190.756 165.403 191.128 165.716 191.441C166.029 191.753 166.4 192.002 166.809 192.171C167.217 192.34 167.656 192.427 168.098 192.427C168.54 192.427 168.978 192.34 169.387 192.171C169.796 192.002 170.167 191.753 170.48 191.441C170.793 191.128 171.041 190.756 171.21 190.348C171.38 189.939 171.467 189.501 171.466 189.058V187.936H188.466C202.944 187.936 214.722 176.157 214.722 161.68V111.576C214.722 97.0987 202.944 85.3205 188.466 85.3205H168.098C167.656 85.3203 167.217 85.4073 166.809 85.5765C166.4 85.7457 166.029 85.9938 165.716 86.3067C165.403 86.6195 165.155 86.9909 164.986 87.3997C164.816 87.8084 164.729 88.2465 164.73 88.6889V98.7942H41.7193V62.7979H164.73V77.3944C164.729 77.8368 164.816 78.2749 164.986 78.6836C165.155 79.0924 165.403 79.4638 165.716 79.7766C166.029 80.0894 166.4 80.3375 166.809 80.5067C167.217 80.676 167.656 80.763 168.098 80.7628C168.54 80.763 168.978 80.676 169.387 80.5067C169.796 80.3375 170.167 80.0894 170.48 79.7766C170.793 79.4638 171.041 79.0924 171.21 78.6836C171.38 78.2749 171.467 77.8368 171.466 77.3944V76.2716H188.466C207.933 76.2716 223.771 92.1094 223.771 111.576V161.679H223.77ZM171.466 92.0573H188.466C199.228 92.0573 207.985 100.813 207.985 111.576V161.679C207.985 172.442 199.228 181.198 188.466 181.198H171.466V92.0573ZM71.2891 42.6421C74.8356 42.6392 78.3437 43.3762 81.5893 44.806C82.2532 45.0974 82.9934 45.1667 83.6999 45.0036C84.4063 44.8404 85.0412 44.4536 85.5101 43.9006C93.6873 34.2637 105.609 28.7368 118.219 28.7368C135.998 28.7368 151.846 39.7763 158.188 56.061H48.7027C53.1324 47.8807 61.7066 42.6421 71.2891 42.6421Z" fill="#34150C"/>
<path d="M137.798 134.23C135.817 134.23 134.205 135.842 134.205 137.823C134.205 139.804 135.817 141.416 137.798 141.416C139.779 141.416 141.391 139.804 141.391 137.823C141.391 135.842 139.779 134.23 137.798 134.23ZM83.9031 174.651C81.922 174.651 80.3101 176.263 80.3101 178.244C80.3101 180.225 81.922 181.837 83.9031 181.837C85.8842 181.837 87.4961 180.225 87.4961 178.244C87.4961 176.263 85.8846 174.651 83.9031 174.651ZM74.9206 188.125C72.9395 188.125 71.3276 189.737 71.3276 191.718C71.3276 193.699 72.9395 195.311 74.9206 195.311C76.9017 195.311 78.5136 193.699 78.5136 191.718C78.5136 189.737 76.9021 188.125 74.9206 188.125Z" fill="#34150C"/>
<path d="M51.8245 139.215C51.3821 139.215 50.944 139.302 50.5352 139.471C50.1265 139.64 49.7551 139.889 49.4422 140.201C49.1294 140.514 48.8813 140.886 48.7121 141.294C48.5429 141.703 48.4559 142.141 48.4561 142.584V216.246C48.4561 217.139 48.8109 217.996 49.4426 218.627C50.0743 219.259 50.9311 219.614 51.8245 219.614C52.7178 219.614 53.5746 219.259 54.2063 218.627C54.838 217.996 55.1929 217.139 55.1929 216.246V142.584C55.1931 142.141 55.1061 141.703 54.9369 141.294C54.7676 140.886 54.5195 140.514 54.2067 140.201C53.8939 139.889 53.5225 139.64 53.1137 139.471C52.705 139.302 52.2669 139.215 51.8245 139.215ZM51.8245 112.268C51.3821 112.268 50.944 112.355 50.5352 112.524C50.1265 112.693 49.7551 112.941 49.4422 113.254C49.1294 113.567 48.8813 113.938 48.7121 114.347C48.5429 114.756 48.4559 115.194 48.4561 115.636V129.11C48.4561 130.003 48.8109 130.86 49.4426 131.492C50.0743 132.123 50.9311 132.478 51.8245 132.478C52.7178 132.478 53.5746 132.123 54.2063 131.492C54.838 130.86 55.1929 130.003 55.1929 129.11V115.636C55.1931 115.194 55.1061 114.756 54.9369 114.347C54.7676 113.938 54.5195 113.567 54.2067 113.254C53.8939 112.941 53.5225 112.693 53.1137 112.524C52.705 112.355 52.2669 112.268 51.8245 112.268Z" fill="white"/>
</svg>
