<svg xmlns="http://www.w3.org/2000/svg" width="570" height="470" fill="none" viewBox="0 0 570 470"><path fill="#FBD7B5" d="M418.74 120.839h-37.851v2.5a7.497 7.497 0 0 1-7.5 7.5l-.001 10.149h45.352c32.235 0 58.46 26.225 58.46 58.46v111.558c0 32.235-26.225 58.46-58.46 58.46h-37.851v2.5a7.497 7.497 0 0 1-7.5 7.5l-.001 10.147h45.352c43.345 0 78.608-35.264 78.608-78.608V199.447c0-43.344-35.263-78.608-78.608-78.608Z"/><path fill="#fff" d="M351.325 75.839C337.204 39.58 301.918 15 262.332 15c-28.077 0-54.622 12.306-72.829 33.764a7.497 7.497 0 0 1-8.73 2.016 56.773 56.773 0 0 0-22.934-4.818c-21.335 0-40.427 11.663-50.29 29.877h243.776Zm14.564 47.499v-32.5H92v80.148h273.89v-22.5a7.502 7.502 0 0 1 7.499-7.5v-10.149a7.502 7.502 0 0 1-7.5-7.499Z"/><path fill="#F59B45" d="M365.889 371.966V185.987H92V455h273.89v-57.886a7.502 7.502 0 0 1 7.499-7.5v-10.147a7.501 7.501 0 0 1-7.5-7.501ZM122 432.5a7.5 7.5 0 0 1-7.5 7.5 7.5 7.5 0 0 1-7.5-7.5V268.487a7.5 7.5 0 0 1 7.5-7.5 7.5 7.5 0 0 1 7.5 7.5V432.5Zm0-194.013a7.5 7.5 0 0 1-7.5 7.5 7.5 7.5 0 0 1-7.5-7.5v-30a7.5 7.5 0 0 1 7.5-7.5 7.5 7.5 0 0 1 7.5 7.5v30Zm43.925 147.4c-4.411 0-8-3.589-8-8s3.589-8 8-8 8 3.589 8 8-3.588 8-8 8Zm20-30c-4.411 0-8-3.589-8-8s3.589-8 8-8 8 3.589 8 8-3.588 8-8 8Zm120-90c-4.411 0-8-3.589-8-8s3.589-8 8-8 8 3.589 8 8-3.588 8-8 8Z"/><path fill="#34150C" d="M418.74 105.839h-37.851v-22.5a7.498 7.498 0 0 0-7.5-7.5h-6.127C352.442 30.916 310.088 0 262.332 0c-30.684 0-59.784 12.699-80.666 35.019a71.54 71.54 0 0 0-23.827-4.057c-29.628 0-55.839 17.82-66.863 44.877H84.5a7.5 7.5 0 0 0-7.5 7.5V455H64.5a7.5 7.5 0 0 0-7.5 7.5 7.5 7.5 0 0 0 7.5 7.5h328.89a7.5 7.5 0 0 0 7.5-7.5 7.5 7.5 0 0 0-7.5-7.5h-12.5v-50.386h37.851c51.616 0 93.608-41.993 93.608-93.608V199.447c-.001-51.615-41.993-93.608-93.609-93.608Zm78.608 205.166c0 43.345-35.264 78.608-78.608 78.608h-45.351a7.497 7.497 0 0 0-7.5 7.5V455H92V185.987h273.89v185.979a7.497 7.497 0 0 0 7.5 7.5 7.497 7.497 0 0 0 7.5-7.5v-2.5h37.851c32.235 0 58.46-26.225 58.46-58.46V199.447c0-32.235-26.225-58.46-58.46-58.46H373.39a7.497 7.497 0 0 0-7.5 7.5v22.5H92V90.839h273.89v32.5a7.497 7.497 0 0 0 7.5 7.5 7.497 7.497 0 0 0 7.5-7.5v-2.5h37.851c43.345 0 78.608 35.264 78.608 78.608v111.558h-.001ZM380.889 155.987h37.851c23.964 0 43.46 19.496 43.46 43.46v111.558c0 23.964-19.496 43.46-43.46 43.46h-37.851V155.987ZM157.839 45.961a56.773 56.773 0 0 1 22.934 4.818 7.496 7.496 0 0 0 8.73-2.016C207.71 27.306 234.255 15 262.332 15c39.586 0 74.872 24.58 88.993 60.839H107.549c9.863-18.214 28.954-29.878 50.29-29.878Z"/><path fill="#34150C" d="M305.925 249.887c-4.411 0-8 3.589-8 8s3.589 8 8 8 8-3.589 8-8-3.588-8-8-8Zm-120 90c-4.411 0-8 3.589-8 8s3.589 8 8 8 8-3.589 8-8-3.588-8-8-8Zm-20 30c-4.411 0-8 3.589-8 8s3.589 8 8 8 8-3.589 8-8-3.588-8-8-8Z"/><path fill="#fff" d="M114.5 260.987a7.497 7.497 0 0 0-7.5 7.5V432.5a7.5 7.5 0 0 0 7.5 7.5 7.5 7.5 0 0 0 7.5-7.5V268.487a7.497 7.497 0 0 0-7.5-7.5Zm0-60a7.497 7.497 0 0 0-7.5 7.5v30a7.5 7.5 0 0 0 7.5 7.5 7.5 7.5 0 0 0 7.5-7.5v-30a7.497 7.497 0 0 0-7.5-7.5Z"/></svg>