<svg width="256" height="256" viewBox="0 0 256 256" fill="none" xmlns="http://www.w3.org/2000/svg">
<path d="M246.176 113.612L244.623 116.712C244.623 116.712 243.07 119.523 240.299 123.83H240.293C236.014 130.478 228.833 140.692 219.969 149.647C217.316 152.333 214.505 154.906 211.575 157.241L194.685 176.409H161.245L54.6925 178.11L49.2345 176.353L13.3925 164.803L4.25049 134.633C4.25049 134.633 14.4805 132.361 30.968 129.17C34.805 128.427 38.988 127.639 43.4595 126.812C92.0825 117.845 174.95 105.036 227.433 110.511C234.24 111.22 240.531 112.24 246.176 113.612Z" fill="#66CC92"/>
<path d="M34.845 128.433L30.6055 103.007C30.6055 103.007 101.242 77.707 147.632 82.978L180.323 109.61" fill="#F2D546"/>
<path d="M180.323 109.611C173.749 109.889 167.038 110.291 160.26 110.807C141.522 112.219 122.258 114.446 103.94 116.991C100.471 98.9395 93.71 86.3515 93.71 86.3515C106.604 84.022 120.082 82.367 132.647 82.265C137.833 82.2195 142.86 82.435 147.632 82.979L180.323 109.611Z" fill="#89E8E8"/>
<path d="M180.323 109.611C173.749 109.889 167.038 110.291 160.26 110.807C153.073 99.829 140.258 88.4995 132.647 82.265C137.833 82.2195 142.86 82.435 147.632 82.979L180.323 109.611Z" fill="white"/>
<path d="M43.46 126.812C41.508 127.172 39.6175 127.525 37.78 127.872C35.4075 128.318 33.1315 128.751 30.9685 129.17L30.97 129.172C14.4825 132.359 4.25049 134.634 4.25049 134.634L13.3925 164.803L49.235 176.354C52.4545 173.894 53.2645 170.822 50.5045 166.979C43.0105 156.549 41.0545 146.953 41.0615 139.757L41.062 139.757C41.062 139.757 156.054 115.55 219.873 120.651C223.44 120.936 226.107 124.045 225.893 127.617C225.561 133.156 224.173 140.864 219.968 149.647C228.833 140.692 236.014 130.479 240.293 123.831H240.298C243.07 119.523 244.623 116.712 244.623 116.712L246.176 113.612C197.02 101.654 98.3855 116.684 43.46 126.812Z" fill="#51AD77"/>
<path d="M250.745 182.401C239.621 182.401 239.621 193.175 228.497 193.175C217.373 193.175 217.373 182.401 206.248 182.401C195.124 182.401 195.124 193.175 183.999 193.175C172.874 193.175 172.874 182.401 161.75 182.401C150.626 182.401 150.626 193.175 139.503 193.175C128.379 193.175 128.379 182.401 117.254 182.401C106.13 182.401 106.13 193.175 95.0045 193.175C83.8795 193.175 83.8795 182.401 72.754 182.401C61.6285 182.401 61.629 193.175 50.5045 193.175C39.378 193.175 39.378 182.401 28.2515 182.401C17.125 182.401 17.125 193.175 5.99854 193.175V166.979C17.125 166.979 17.125 156.204 28.2515 156.204C39.378 156.204 39.378 166.979 50.5045 166.979C61.6295 166.979 61.6295 156.204 72.754 156.204C83.879 156.204 83.879 166.979 95.0045 166.979C106.129 166.979 106.129 156.204 117.254 156.204C128.379 156.204 128.379 166.979 139.503 166.979C150.627 166.979 150.627 156.204 161.75 156.204C172.874 156.204 172.874 166.979 183.999 166.979C195.123 166.979 195.123 156.204 206.248 156.204C217.373 156.204 217.373 166.979 228.497 166.979C239.621 166.979 239.621 156.204 250.745 156.204" fill="#79C4F7"/>
<path d="M212.773 127.486L212.851 127.487C213.969 127.483 215.041 127.038 215.833 126.25C216.626 125.461 217.076 124.392 217.086 123.274C217.096 122.155 216.665 121.078 215.886 120.276C215.108 119.473 214.044 119.01 212.926 118.986L201.536 118.781L201.458 118.781C200.339 118.785 199.268 119.23 198.475 120.018C197.682 120.807 197.232 121.876 197.223 122.994C197.213 124.113 197.644 125.19 198.422 125.992C199.201 126.795 200.265 127.258 201.383 127.282L212.773 127.486ZM250.745 178.15C243.462 178.15 239.693 181.801 236.664 184.735C234.059 187.257 232.338 188.924 228.497 188.924C224.656 188.924 222.936 187.257 220.33 184.735C217.301 181.801 213.531 178.15 206.248 178.15C198.964 178.15 195.195 181.801 192.166 184.734C189.56 187.258 187.84 188.924 183.999 188.924C181.468 188.924 180.001 188.157 179.007 187.489C178.071 186.873 176.929 186.65 175.83 186.871C174.731 187.092 173.764 187.738 173.139 188.668C172.514 189.599 172.281 190.738 172.492 191.839C172.703 192.94 173.341 193.913 174.266 194.546C177.15 196.484 180.334 197.426 183.999 197.426C191.282 197.426 195.052 193.776 198.081 190.842C200.686 188.319 202.407 186.652 206.248 186.652C210.089 186.652 211.81 188.319 214.415 190.842C217.445 193.776 221.214 197.426 228.497 197.426C235.781 197.426 239.55 193.776 242.579 190.842C245.184 188.319 246.905 186.652 250.745 186.652C253.093 186.652 254.996 184.749 254.996 182.401C254.996 180.053 253.093 178.15 250.745 178.15ZM168.344 179.36C166.315 178.546 164.158 178.15 161.749 178.15C154.466 178.15 150.697 181.801 147.668 184.735C145.063 187.257 143.343 188.924 139.503 188.924C135.662 188.924 133.941 187.257 131.336 184.735C128.306 181.801 124.537 178.15 117.254 178.15C109.971 178.15 106.201 181.801 103.172 184.735C100.567 187.257 98.8456 188.924 95.0046 188.924C91.1631 188.924 89.4416 187.257 86.8361 184.734C83.8066 181.801 80.0371 178.15 72.7536 178.15C65.4701 178.15 61.7006 181.801 58.6711 184.734C56.0661 187.258 54.3451 188.924 50.5036 188.924C46.6616 188.924 44.9396 187.257 42.3341 184.734C39.3046 181.801 35.5346 178.15 28.2506 178.15C20.9666 178.15 17.1971 181.801 14.1676 184.734C11.5621 187.258 9.84007 188.924 5.99807 188.924C4.87064 188.924 3.78938 189.372 2.99216 190.17C2.19494 190.967 1.74707 192.048 1.74707 193.175C1.74707 194.303 2.19494 195.384 2.99216 196.181C3.78938 196.979 4.87064 197.426 5.99807 197.426C13.2821 197.426 17.0526 193.776 20.0816 190.842C22.6871 188.319 24.4081 186.652 28.2511 186.652C32.0941 186.652 33.8151 188.319 36.4206 190.842C39.4501 193.776 43.2201 197.426 50.5041 197.426C57.7876 197.426 61.5571 193.776 64.5861 190.842C67.1911 188.319 68.9121 186.652 72.7536 186.652C76.5951 186.652 78.3161 188.319 80.9211 190.842C83.9506 193.776 87.7201 197.426 95.0036 197.426C102.287 197.426 106.056 193.776 109.086 190.842C111.691 188.319 113.412 186.652 117.253 186.652C121.095 186.652 122.816 188.319 125.421 190.842C128.45 193.776 132.219 197.426 139.503 197.426C146.786 197.426 150.554 193.776 153.583 190.842C156.188 188.319 157.909 186.652 161.749 186.652C163.053 186.652 164.175 186.848 165.179 187.251C167.356 188.125 169.833 187.067 170.707 184.888C171.126 183.842 171.113 182.671 170.67 181.635C170.227 180.598 169.39 179.78 168.344 179.36Z" fill="black"/>
<path d="M248.344 118.769C248.372 118.718 248.398 118.668 248.424 118.616L248.432 118.599C249.128 118.796 249.813 118.997 250.478 119.205C250.889 119.335 251.318 119.401 251.749 119.401C252.766 119.401 253.748 119.037 254.519 118.375C255.29 117.713 255.798 116.796 255.951 115.792C256.105 114.787 255.893 113.761 255.355 112.899C254.817 112.037 253.988 111.396 253.018 111.093C251.093 110.493 249.148 109.956 247.187 109.484L247.182 109.482C229.962 105.293 206.997 104.297 181.728 105.272L150.318 79.683C149.686 79.169 148.921 78.8469 148.112 78.755C101.279 73.4325 32.094 97.96 29.1725 99.007C29.1615 99.011 29.152 99.016 29.1415 99.0195C29.1315 99.0235 29.121 99.025 29.1115 99.029L20.043 102.435C18.992 102.835 18.1422 103.635 17.6796 104.66C17.2169 105.685 17.1791 106.851 17.5745 107.904C17.9699 108.956 18.7662 109.809 19.7891 110.276C20.8121 110.743 21.9783 110.786 23.0325 110.394L27.263 108.805L29.97 125.038C13.711 128.185 3.45551 130.457 3.32951 130.485C2.75823 130.612 2.21933 130.856 1.74656 131.2C1.27378 131.545 0.877313 131.984 0.581983 132.489C0.286653 132.995 0.0988232 133.555 0.0302559 134.137C-0.0383114 134.718 0.0138614 135.307 0.183507 135.867L8.25151 162.492C7.58051 162.644 6.84301 162.729 5.99901 162.729C4.87157 162.729 3.79031 163.177 2.9931 163.974C2.19588 164.771 1.74801 165.853 1.74801 166.98C1.74801 168.107 2.19588 169.189 2.9931 169.986C3.79031 170.783 4.87157 171.231 5.99901 171.231C13.283 171.231 17.0535 167.58 20.0825 164.647C22.688 162.123 24.409 160.457 28.252 160.457C32.095 160.457 33.816 162.124 36.4215 164.647C39.451 167.58 43.221 171.231 50.505 171.231C57.7885 171.231 61.558 167.58 64.587 164.647C67.192 162.123 68.913 160.457 72.7545 160.457C73.8819 160.457 74.9632 160.009 75.7604 159.212C76.5576 158.415 77.0055 157.333 77.0055 156.206C77.0055 155.079 76.5576 153.997 75.7604 153.2C74.9632 152.403 73.8819 151.955 72.7545 151.955C65.471 151.955 61.7015 155.605 58.672 158.539C56.067 161.062 54.346 162.729 50.5045 162.729C46.6625 162.729 44.9405 161.062 42.335 158.539C39.3055 155.605 35.5355 151.955 28.2515 151.955C22.0215 151.955 18.365 154.625 15.541 157.234L9.65751 137.817C15.8955 136.494 28.248 133.943 44.2315 130.994C44.7848 130.898 45.3136 130.693 45.7871 130.39C46.2606 130.088 46.6696 129.695 46.9903 129.234C47.3111 128.773 47.5373 128.253 47.6558 127.704C47.7744 127.155 47.783 126.588 47.6811 126.035C47.5791 125.483 47.3688 124.956 47.0621 124.486C46.7554 124.015 46.3585 123.61 45.8943 123.294C45.4301 122.977 44.9079 122.756 44.3577 122.643C43.8075 122.53 43.2404 122.527 42.689 122.634C41.202 122.908 39.7465 123.179 38.323 123.446L35.3905 105.86C41.5705 103.787 55.7025 99.2555 72.8115 95.1265C79.1825 93.589 85.3535 92.255 91.3 91.125C93.1255 95.112 96.441 103.14 98.8285 113.402C84.4405 115.46 70.435 117.724 57.376 119.999C56.826 120.095 56.3003 120.298 55.8288 120.597C55.3574 120.896 54.9494 121.285 54.6283 121.742C54.3071 122.199 54.0791 122.714 53.9571 123.259C53.8352 123.804 53.8217 124.367 53.9175 124.917C54.32 127.23 56.5195 128.775 58.835 128.375C165.985 109.71 217.044 112.357 239.779 116.594C236.289 122.462 225.014 140.368 210.681 152.473C209.359 152.149 207.897 151.955 206.247 151.955C198.963 151.955 195.194 155.605 192.165 158.539C189.559 161.062 187.839 162.729 183.998 162.729C180.157 162.729 178.436 161.062 175.831 158.539C172.802 155.606 169.032 151.955 161.749 151.955C154.466 151.955 150.697 155.606 147.668 158.539C145.063 161.062 143.343 162.729 139.503 162.729C135.662 162.729 133.941 161.062 131.335 158.539C128.306 155.606 124.537 151.955 117.254 151.955C109.971 151.955 106.201 155.605 103.172 158.539C100.567 161.062 98.8455 162.729 95.0045 162.729C91.5015 162.729 89.7235 161.294 87.594 159.269C87.1896 158.884 86.7134 158.583 86.1926 158.382C85.6717 158.181 85.1164 158.085 84.5584 158.099C84.0004 158.113 83.4505 158.236 82.9403 158.463C82.43 158.689 81.9693 159.014 81.5845 159.418C81.1997 159.822 80.8983 160.299 80.6975 160.819C80.4968 161.34 80.4006 161.896 80.4144 162.454C80.4282 163.012 80.5518 163.561 80.7782 164.072C81.0045 164.582 81.3291 165.043 81.7335 165.427C84.684 168.235 88.3865 171.23 95.0045 171.23C102.288 171.23 106.057 167.58 109.087 164.646C111.692 162.123 113.413 160.456 117.254 160.456C121.096 160.456 122.817 162.123 125.422 164.646C128.451 167.58 132.22 171.23 139.503 171.23C146.786 171.23 150.555 167.58 153.584 164.646C156.189 162.123 157.909 160.456 161.75 160.456C165.591 160.456 167.312 162.123 169.917 164.646C172.946 167.579 176.715 171.23 183.999 171.23C191.282 171.23 195.052 167.58 198.081 164.646C200.686 162.123 202.407 160.456 206.248 160.456C210.09 160.456 211.81 162.123 214.415 164.646C217.445 167.58 221.214 171.23 228.497 171.23C235.781 171.23 239.55 167.58 242.579 164.646C245.184 162.123 246.905 160.456 250.745 160.456C251.304 160.457 251.857 160.347 252.372 160.133C252.888 159.919 253.357 159.606 253.752 159.212C254.146 158.817 254.459 158.348 254.673 157.832C254.887 157.317 254.997 156.764 254.997 156.205C254.997 155.647 254.887 155.094 254.673 154.579C254.459 154.063 254.146 153.594 253.752 153.199C253.357 152.805 252.888 152.492 252.372 152.278C251.857 152.064 251.304 151.954 250.745 151.954C243.462 151.954 239.693 155.605 236.664 158.539C234.059 161.061 232.338 162.728 228.497 162.728C224.656 162.728 222.936 161.061 220.331 158.539C219.774 158 219.191 157.436 218.568 156.876C235.741 141.372 247.799 119.755 248.344 118.769ZM107.281 112.224C105.06 102.384 102.044 94.4575 99.939 89.6035C117.883 86.696 133.484 85.821 145.925 87.0705L169.049 105.909C148.97 107.142 127.85 109.434 107.281 112.224Z" fill="black"/>
</svg>
