<svg width="256" height="256" viewBox="0 0 256 256" fill="none" xmlns="http://www.w3.org/2000/svg">
<path d="M119.265 57.4949C119.265 29.6391 96.6806 7.05505 68.8248 7.05505C40.969 7.05505 18.385 29.6391 18.385 57.4949C18.385 82.9957 37.3743 104.265 62.2481 107.508C92.2316 111.414 119.265 88.1791 119.265 57.4949Z" fill="#FFE773"/>
<path d="M73.0948 31.7733C59.5005 36.9849 48.4428 48.0399 43.1949 61.6201C38.056 74.9178 18.3015 71.4477 18.3855 57.1917C18.5482 29.632 41.0346 7.24653 68.4668 7.05616C82.7717 6.95745 86.4522 26.6528 73.0948 31.7733Z" fill="#FFF0A6"/>
<path d="M194.111 247.322H159.942V151.324C159.942 150.173 159.485 149.069 158.671 148.256C157.857 147.442 156.754 146.985 155.603 146.985C154.452 146.985 153.349 147.442 152.535 148.256C151.721 149.069 151.264 150.173 151.264 151.324V247.322H117.095C115.945 247.322 114.841 247.779 114.027 248.593C113.213 249.407 112.756 250.51 112.756 251.661C112.756 252.812 113.213 253.915 114.027 254.729C114.841 255.543 115.945 256 117.095 256H194.111C195.262 256 196.365 255.543 197.179 254.729C197.993 253.915 198.45 252.812 198.45 251.661C198.45 250.51 197.993 249.407 197.179 248.593C196.365 247.779 195.262 247.322 194.111 247.322Z" fill="#A4EBFC"/>
<path d="M233.268 57.4949C236.921 57.4949 238.939 61.7334 236.636 64.5689C211.355 95.7001 159.228 159.878 159.392 159.676C157.438 162.081 153.768 162.081 151.814 159.676L74.5701 64.5695C72.2672 61.734 74.2848 57.4954 77.9382 57.4954L233.268 57.4949Z" fill="#FF6D7A"/>
<path d="M68.8248 37.9697C67.674 37.9697 66.5704 37.5126 65.7567 36.6989C64.943 35.8852 64.4859 34.7816 64.4859 33.6308V28.2072C64.4859 27.0564 64.943 25.9528 65.7567 25.1391C66.5704 24.3254 67.674 23.8683 68.8248 23.8683C69.9755 23.8683 71.0792 24.3254 71.8929 25.1391C72.7066 25.9528 73.1637 27.0564 73.1637 28.2072V33.6308C73.1637 34.7816 72.7066 35.8852 71.8929 36.6989C71.0792 37.5126 69.9755 37.9697 68.8248 37.9697ZM44.9608 61.8337H39.5372C38.3864 61.8337 37.2828 61.3766 36.4691 60.5629C35.6554 59.7492 35.1982 58.6456 35.1982 57.4948C35.1982 56.3441 35.6554 55.2405 36.4691 54.4268C37.2828 53.6131 38.3864 53.1559 39.5372 53.1559H44.9608C46.1115 53.1559 47.2152 53.6131 48.0289 54.4268C48.8426 55.2405 49.2997 56.3441 49.2997 57.4948C49.2997 58.6456 48.8426 59.7492 48.0289 60.5629C47.2152 61.3766 46.1115 61.8337 44.9608 61.8337Z" fill="white"/>
<path d="M236.638 64.5673C215.196 90.9712 230.608 71.9939 159.394 159.676C157.436 162.079 153.77 162.079 151.812 159.676L128.967 131.548C126.04 127.945 127.723 122.537 132.171 121.209C158.429 113.371 176.425 90.2103 178.919 63.4023C179.231 60.0554 182.033 57.4949 185.394 57.4949H233.269C236.92 57.4949 238.937 61.7307 236.638 64.5673Z" fill="#FE4F60"/>
<path d="M236.637 64.5695L220.09 84.9445C201.389 94.9945 186.572 96.5077 176.565 96.0467C157.372 95.3606 145.868 85.9696 123.604 87.8679C112.659 88.8007 104.008 92.0007 98.747 94.3382L74.5701 64.5695C72.2672 61.7341 74.2848 57.4955 77.9382 57.4955H233.268C236.921 57.4949 238.939 61.7335 236.637 64.5695Z" fill="#E3F7FC"/>
<path d="M236.638 64.5673L220.09 84.9439C203.4 93.9135 186 98.2535 167.654 95.0644C173.944 85.7325 177.856 74.831 178.919 63.4023C179.231 60.0554 182.033 57.4949 185.394 57.4949H233.269C236.92 57.4949 238.937 61.7307 236.638 64.5673Z" fill="#CAF1FC"/>
<path d="M170.629 109.177C169.58 108.703 168.763 107.832 168.357 106.755C167.95 105.678 167.988 104.484 168.462 103.436C170.135 99.7375 200.207 33.2355 202.066 29.1298C202.541 28.0814 203.412 27.2644 204.489 26.8586C205.566 26.4528 206.76 26.4913 207.808 26.9658C208.857 27.4403 209.674 28.3118 210.079 29.3886C210.485 30.4655 210.447 31.6594 209.972 32.7078L176.369 107.011C175.895 108.059 175.024 108.876 173.948 109.283C172.871 109.689 171.677 109.651 170.629 109.177Z" fill="#99D856"/>
<path d="M210.924 0.00439453C222.005 0.00439453 230.992 8.99136 230.992 20.0719C230.992 34.7092 215.821 44.335 202.653 38.3604V38.3549C195.695 35.2038 190.857 28.2019 190.857 20.0719C190.857 8.99136 199.844 0.00439453 210.924 0.00439453Z" fill="#BEFA91"/>
<path d="M221.269 13.5531C212.436 14.0298 204.697 20.4959 202.707 29.1254C201.733 33.3494 196.083 34.2524 193.813 30.5605C191.371 26.5899 190.368 21.8312 191.082 17.0454C193.385 1.61892 212.158 -5.5495 224.157 4.98755C227.444 7.87401 225.637 13.3177 221.269 13.5531Z" fill="#DAFFBF"/>
<path d="M198.764 57.4949L181.306 96.0949C178.187 96.1748 175.066 96.0371 171.966 95.6827L189.24 57.4949H198.764Z" fill="#A4EBFC"/>
<path d="M181.306 96.0949L176.37 107.013C176.025 107.772 175.469 108.417 174.768 108.869C174.067 109.321 173.251 109.561 172.416 109.562C169.265 109.562 167.166 106.303 168.463 103.433L171.966 95.6827C175.172 96.044 178.238 96.1741 181.306 96.0949Z" fill="#E84857"/>
</svg>
