<svg width="256" height="256" viewBox="0 0 256 256" fill="none" xmlns="http://www.w3.org/2000/svg">
<path d="M19 241.991L157.395 177.501L82.1824 102.995L19 241.991Z" fill="#FFB819"/>
<path d="M100.847 175.736C110.121 175.736 117.638 168.219 117.638 158.945C117.638 149.672 110.121 142.154 100.847 142.154C91.5736 142.154 84.0559 149.672 84.0559 158.945C84.0559 168.219 91.5736 175.736 100.847 175.736Z" fill="#FFD26C"/>
<path d="M54.6179 163.634C59.2656 163.906 64.0025 162.26 67.5365 158.692C74.0087 152.159 74.0094 141.651 67.5835 135.112L54.6179 163.634Z" fill="#FFD26C"/>
<path d="M36.1643 224.241C32.8713 227.567 31.2547 231.92 31.3061 236.257L59.0408 223.332C52.4181 217.624 42.4119 217.935 36.1643 224.241Z" fill="#FFD26C"/>
<path d="M102.943 190.291C98.9592 194.312 97.4306 199.839 98.3389 205.021L127.737 191.321C127.407 190.929 127.06 190.546 126.689 190.179C120.101 183.652 109.469 183.703 102.943 190.291Z" fill="#FFD26C"/>
<path d="M62.2862 209.139C71.5597 209.139 79.0774 201.621 79.0774 192.347C79.0774 183.074 71.5597 175.556 62.2862 175.556C53.0128 175.556 45.4951 183.074 45.4951 192.347C45.4951 201.621 53.0128 209.139 62.2862 209.139Z" fill="#FFD26C"/>
<path d="M74.1295 120.71L139.756 185.721L157.395 177.501L82.1824 102.995L74.1295 120.71Z" fill="#004D7A"/>
<path d="M98.0856 80.1165C104.41 80.1165 109.537 74.9893 109.537 68.6646C109.537 62.3399 104.41 57.2128 98.0856 57.2128C91.761 57.2128 86.6338 62.3399 86.6338 68.6646C86.6338 74.9893 91.761 80.1165 98.0856 80.1165Z" fill="#00BCB4"/>
<path d="M185.71 172.29C192.034 172.29 197.162 167.163 197.162 160.839C197.162 154.514 192.034 149.387 185.71 149.387C179.385 149.387 174.258 154.514 174.258 160.839C174.258 167.163 179.385 172.29 185.71 172.29Z" fill="#00BCB4"/>
<path d="M210.604 121.201C216.929 121.201 222.056 116.073 222.056 109.749C222.056 103.424 216.929 98.2969 210.604 98.2969C204.28 98.2969 199.153 103.424 199.153 109.749C199.153 116.073 204.28 121.201 210.604 121.201Z" fill="#FFB819"/>
<path d="M123.533 37.9037C129.857 37.9037 134.985 32.7765 134.985 26.4519C134.985 20.1272 129.857 15 123.533 15C117.208 15 112.081 20.1272 112.081 26.4519C112.081 32.7765 117.208 37.9037 123.533 37.9037Z" fill="#FFB819"/>
<path d="M155.859 138.772C162.183 138.772 167.311 133.645 167.311 127.32C167.311 120.995 162.183 115.868 155.859 115.868C149.534 115.868 144.407 120.995 144.407 127.32C144.407 133.645 149.534 138.772 155.859 138.772Z" fill="#D85C72"/>
<path d="M162.806 72.692C169.131 72.692 174.258 67.5649 174.258 61.2402C174.258 54.9155 169.131 49.7883 162.806 49.7883C156.481 49.7883 151.354 54.9155 151.354 61.2402C151.354 67.5649 156.481 72.692 162.806 72.692Z" fill="#D85C72"/>
<path d="M221.529 77.9495C227.854 77.9495 232.981 72.8224 232.981 66.4977C232.981 60.173 227.854 55.0458 221.529 55.0458C215.204 55.0458 210.077 60.173 210.077 66.4977C210.077 72.8224 215.204 77.9495 221.529 77.9495Z" fill="#D85C72"/>
<path d="M97.2337 103.963C94.9015 103.963 93.012 102.073 93.012 99.7413C93.012 97.4097 94.9015 95.5195 97.2337 95.5195C112.945 95.5195 125.728 82.7372 125.728 67.0252C125.728 46.6574 142.298 30.0873 162.666 30.0873C183.033 30.0873 199.603 46.6574 199.603 67.0252C199.603 69.3568 197.713 71.2463 195.382 71.2463C193.051 71.2463 191.161 69.3568 191.161 67.0252C191.161 51.3132 178.378 38.5308 162.667 38.5308C146.955 38.5308 134.172 51.3132 134.172 67.0252C134.171 87.393 117.6 103.963 97.2337 103.963Z" fill="#00BCB4"/>
<path d="M207.83 145.038C191.747 145.038 178.66 131.952 178.66 115.868C178.66 104.44 169.362 95.1407 157.933 95.1407C146.505 95.1407 137.206 104.439 137.206 115.868C137.206 118.2 135.316 120.089 132.985 120.089C130.653 120.089 128.764 118.2 128.764 115.868C128.764 99.7841 141.849 86.6984 157.933 86.6984C174.018 86.6984 187.103 99.7841 187.103 115.868C187.103 127.297 196.401 136.595 207.83 136.595C219.259 136.595 228.557 127.297 228.557 115.868C228.557 113.537 230.448 111.647 232.779 111.647C235.11 111.647 237 113.537 237 115.868C237.001 131.952 223.915 145.038 207.83 145.038Z" fill="#FFB819"/>
</svg>
