<svg xmlns="http://www.w3.org/2000/svg" width="512" height="512" fill="none" viewBox="0 0 512 512"><path fill="#FFD76E" d="m280 91.613 75.051-31.271a7.992 7.992 0 0 1 10.461 4.305 7.999 7.999 0 0 1-4.305 10.46L280 108.944v10.717l106.938-20.05c10.448-1.96 16.116-13.374 11.362-22.881l-21.94-43.88c-4.464-8.928-15.925-11.634-23.911-5.645l-74.133 55.599A7.953 7.953 0 0 1 280 87.7v3.912Z"/><path fill="#FF8C87" d="M184 337.547c0-23.111 18.735-41.846 41.846-41.846 4.969 0 9.733.871 14.154 2.461v-74.461H56v248c0 8.837 7.163 16 16 16h168v-72.537c-28.905-18.59-56-50.431-56-77.617ZM272 297.746a41.76 41.76 0 0 1 12.923-2.045c23.111 0 41.846 18.735 41.846 41.846 0 26.8-26.331 58.123-54.769 76.816v73.338h168c8.837 0 16-7.163 16-16v-248H272v74.045Z"/><path fill="#D2555D" d="M456 207.701H272v16h184v-16ZM240 207.701H56v16h184v-16Z"/><path fill="#E86464" d="M456 119.701H272v88h200v-72c0-8.837-7.163-16-16-16ZM240 119.701H56c-8.837 0-16 7.164-16 16v72h200v-88Z"/><path fill="#FFD76E" d="M150.793 75.107a7.999 7.999 0 0 1-4.305-10.461 7.991 7.991 0 0 1 10.461-4.305L232 91.61V87.7c0-1.847.632-3.543 1.684-4.898l-74.132-55.598c-7.986-5.99-19.447-3.284-23.911 5.645l-21.94 43.88c-4.754 9.508.914 20.922 11.362 22.88L232 119.662v-10.718l-81.207-33.836Z"/><path fill="#FFB96E" d="M240 119.701h40v-10.758l81.207-33.836a7.999 7.999 0 0 0 4.305-10.461 7.993 7.993 0 0 0-10.461-4.305L280 91.613V87.7a7.958 7.958 0 0 0-1.684-4.898A7.978 7.978 0 0 0 272 79.7h-32a7.98 7.98 0 0 0-6.316 3.102A7.953 7.953 0 0 0 232 87.7v3.912L156.95 60.34a7.99 7.99 0 0 0-10.461 4.305 7.999 7.999 0 0 0 4.305 10.46l81.207 33.837V119.7H240v.001Z"/><path fill="#FFD76E" d="M272 119.701h-32v88h32v-88ZM240 298.161a41.874 41.874 0 0 1 15.385 9.749A41.846 41.846 0 0 1 272 297.745V223.7h-32v74.461ZM255.385 423.701c-5.092-2.361-10.266-5.245-15.385-8.537v72.537h32v-73.338c-5.518 3.628-11.115 6.787-16.615 9.338Z"/><path fill="#FFB96E" d="M272 207.701h-32v16h32v-16Z"/><path fill="#D25055" d="M240 298.161a41.738 41.738 0 0 0-14.154-2.461c-23.111 0-41.846 18.735-41.846 41.846 0 27.186 27.095 59.027 56 77.617 5.119 3.292 10.293 6.176 15.385 8.537 5.5-2.55 11.097-5.71 16.615-9.338 28.439-18.693 54.769-50.017 54.769-76.816 0-23.111-18.735-41.846-41.846-41.846A41.76 41.76 0 0 0 272 297.745a41.846 41.846 0 0 0-16.615 10.165A41.891 41.891 0 0 0 240 298.161Z"/></svg>