<svg width="256" height="256" viewBox="0 0 256 256" fill="none" xmlns="http://www.w3.org/2000/svg">
<path d="M139.444 49.2413L175.233 34.3297C175.695 34.1365 176.191 34.0363 176.692 34.035C177.193 34.0336 177.689 34.131 178.152 34.3217C178.616 34.5124 179.037 34.7925 179.392 35.1462C179.747 35.4998 180.029 35.9199 180.221 36.3825C180.61 37.3162 180.612 38.3662 180.227 39.3016C179.842 40.2369 179.102 40.9811 178.168 41.3704L139.444 57.5056V62.616L190.438 53.0552C195.42 52.1205 198.123 46.6777 195.856 42.1443L185.394 21.2201C183.265 16.9627 177.8 15.6724 173.992 18.5282L138.641 45.0407C139.162 45.7076 139.445 46.5294 139.444 47.3754V49.2413Z" fill="#FFD76E"/>
<path d="M93.6667 166.515C93.6667 155.495 102.6 146.561 113.621 146.561C115.99 146.561 118.262 146.976 120.37 147.735V112.228H32.6296V230.487C32.6296 234.701 36.0453 238.117 40.2593 238.117H120.37V203.527C106.587 194.663 93.6667 179.479 93.6667 166.515ZM135.63 147.536C137.62 146.889 139.699 146.56 141.792 146.561C152.813 146.561 161.746 155.495 161.746 166.515C161.746 179.295 149.19 194.231 135.63 203.145V238.117H215.741C219.955 238.117 223.37 234.701 223.37 230.487V112.228H135.63V147.536Z" fill="#FF8C87"/>
<path d="M223.37 104.598H135.63V112.228H223.37V104.598ZM120.37 104.598H32.6296V112.228H120.37V104.598Z" fill="#D2555D"/>
<path d="M223.37 62.6351H135.63V104.598H231V70.2647C231 66.0508 227.584 62.6351 223.37 62.6351ZM120.37 62.6351H32.6296C28.4157 62.6351 25 66.0513 25 70.2647V104.598H120.37V62.6351Z" fill="#E86464"/>
<path d="M77.8319 41.3704C76.8982 40.9811 76.1573 40.2368 75.7723 39.3014C75.3874 38.3659 75.3898 37.3158 75.779 36.382C75.9714 35.9194 76.2531 35.4992 76.608 35.1455C76.9629 34.7919 77.3841 34.5117 77.8474 34.321C78.3108 34.1304 78.8072 34.0329 79.3082 34.0343C79.8092 34.0357 80.3051 34.1359 80.7674 34.3292L116.556 49.2399V47.3754C116.556 46.4946 116.857 45.6859 117.359 45.0398L82.0086 18.5277C78.2005 15.6714 72.7353 16.9618 70.6066 21.2196L60.1445 42.1438C57.8775 46.6777 60.5803 52.1205 65.5625 53.0542L116.556 62.6165V57.5056L77.8319 41.3704Z" fill="#FFD76E"/>
<path d="M120.37 62.6351H139.444V57.5051L178.168 41.3704C179.102 40.9811 179.843 40.2368 180.228 39.3014C180.613 38.3659 180.61 37.3158 180.221 36.382C180.029 35.9195 179.747 35.4994 179.392 35.1458C179.037 34.7922 178.616 34.5121 178.152 34.3214C177.689 34.1307 177.193 34.0333 176.692 34.0346C176.191 34.036 175.695 34.1361 175.233 34.3292L139.444 49.2413V47.3754C139.445 46.5291 139.162 45.707 138.641 45.0398C138.286 44.5793 137.83 44.2066 137.307 43.9502C136.785 43.6937 136.211 43.5604 135.63 43.5606H120.37C119.789 43.5605 119.215 43.6938 118.693 43.9503C118.171 44.2067 117.714 44.5794 117.359 45.0398C116.838 45.7069 116.555 46.529 116.556 47.3754V49.2408L80.7678 34.3287C80.3056 34.1354 79.8097 34.0351 79.3087 34.0337C78.8076 34.0323 78.3112 34.1297 77.8478 34.3204C77.3845 34.5111 76.9633 34.7913 76.6084 35.145C76.2534 35.4986 75.9718 35.9189 75.7795 36.3816C75.3904 37.3152 75.388 38.3652 75.773 39.3006C76.158 40.236 76.8987 40.9801 77.8323 41.3694L116.556 57.5047V62.6346L120.37 62.6351Z" fill="#FFB96E"/>
<path d="M135.63 62.6351H120.37V104.598H135.63V62.6351ZM120.37 147.734C123.127 148.727 125.632 150.314 127.707 152.383C129.93 150.166 132.644 148.506 135.63 147.536V112.227H120.37V147.734ZM127.707 207.598C125.279 206.472 122.811 205.097 120.37 203.527V238.117H135.63V203.145C132.998 204.875 130.329 206.382 127.707 207.598Z" fill="#FFD76E"/>
<path d="M135.63 104.598H120.37V112.228H135.63V104.598Z" fill="#FFB96E"/>
<path d="M120.37 147.734C118.205 146.956 115.922 146.559 113.621 146.561C102.6 146.561 93.6666 155.494 93.6666 166.515C93.6666 179.479 106.587 194.662 120.37 203.527C122.811 205.097 125.279 206.472 127.707 207.598C130.329 206.382 132.998 204.875 135.63 203.145C149.191 194.231 161.746 179.294 161.746 166.515C161.746 155.494 152.812 146.561 141.792 146.561C139.699 146.56 137.62 146.889 135.63 147.536C132.644 148.506 129.93 150.166 127.707 152.383C125.632 150.314 123.127 148.727 120.37 147.734Z" fill="#D25055"/>
</svg>
