<svg width="256" height="256" viewBox="0 0 256 256" fill="none" xmlns="http://www.w3.org/2000/svg">
<path d="M198.12 174.89C198.12 174.89 167.9 203.25 127.94 203.25C87.98 203.25 57.78 174.89 57.78 174.89C57.78 174.89 52.16 147.91 66.68 101.33C74.34 76.77 183.34 74.27 191.88 95.75C206.4 132.21 198.12 174.89 198.12 174.89Z" fill="#424242"/>
<path d="M57.78 174.89L67.36 182.57C67.36 182.57 67.28 167.37 71.98 153.19C73.74 147.89 80.02 145.67 84.74 148.65L121.32 171.59C123.325 172.846 125.64 173.52 128.006 173.537C130.372 173.555 132.696 172.916 134.72 171.69C152.2 161.09 197.8 133.35 199.88 131.65C199.88 131.65 199.88 128.23 199.02 123.87L57.26 124.05L57.78 174.89Z" fill="#212121"/>
<path d="M245.62 96.11L132.02 163.77C129.54 165.25 126.44 165.25 123.94 163.77L10.38 96.11C7.22001 94.23 7.22001 89.65 10.38 87.77L123.98 20.11C126.46 18.63 129.56 18.63 132.06 20.11L245.66 87.77C248.8 89.65 248.8 94.23 245.62 96.11Z" fill="#424242"/>
<path d="M128.08 158.81C128.06 158.81 128.02 158.83 128 158.83C127.68 158.83 127.36 158.75 127.08 158.57L8.36001 90.13C8.36001 90.13 7.78001 91.23 8.36001 93.21C8.96001 95.19 9.88001 95.83 10.38 96.13L123.98 163.79C125.22 164.53 126.62 164.91 128.02 164.91H128.1V158.81H128.08Z" fill="#9E9E9E"/>
<path d="M128 158.81C128.02 158.81 128.06 158.83 128.08 158.83C128.4 158.83 128.72 158.75 129 158.57L247.72 90.13C247.72 90.13 248.3 91.23 247.72 93.21C247.12 95.19 246.2 95.83 245.7 96.13L132.1 163.79C130.86 164.53 129.46 164.91 128.06 164.91H127.98V158.81H128Z" fill="#616161"/>
<path d="M70.9 132.17L71.54 126.55C71.54 126.55 120.56 99.89 125.4 97.09C130.24 94.29 135.32 91.17 137.58 88.67C141.58 84.27 138.7 81.51 138.7 81.51C138.7 81.51 135.54 86.63 128 85.73C123.68 85.21 118.06 81.71 117.12 80.07C116.18 78.43 61.78 119.87 61.78 119.87L61.4 126.53L70.9 132.17Z" fill="#424242"/>
<path d="M138.7 81.53C133.46 88.85 124.58 85.65 124.58 85.65C124.58 85.65 96.76 98.99 95.72 96.97C94.68 94.95 118.7 82.59 118.7 82.59C118.7 82.59 117.36 77.67 117.5 75.57C117.5 75.57 74.06 103.21 57.76 112.51C49.22 117.39 47.4 121.99 47.42 128.47C47.42 131.31 47.46 140.53 47.5 146.03C47.5 147.05 47.06 148.01 46.28 148.65C45.099 149.618 44.1474 150.836 43.4938 152.215C42.8402 153.595 42.5007 155.103 42.5 156.63C42.5 159.69 43.84 162.43 45.96 164.33C47.1 165.35 46.86 167.55 46.96 168.97C47.16 171.69 46.96 172.93 45.84 175.45C44.74 177.91 43.72 180.43 43.02 183.03C42.48 185.03 42.12 187.09 41.76 189.13C39.38 202.79 38.3 217.39 32 229.95C31.8813 230.185 31.8105 230.441 31.7916 230.703C31.7727 230.965 31.806 231.229 31.8898 231.478C31.9735 231.727 32.1059 231.958 32.2793 232.155C32.4528 232.353 32.6637 232.514 32.9 232.63C33.375 232.87 33.9256 232.912 34.4315 232.747C34.9374 232.582 35.3575 232.224 35.6 231.75C38.88 225.21 40.58 218.05 41.98 210.95C41.9 217.37 41.86 223.85 41.64 230.85C41.6 232.21 41.5 234.95 42.74 235.55C47.4 237.81 47.4 230.85 47.4 230.85C47.4 230.85 47.46 237.11 53.8 237.11C60.14 237.11 60.6 230.85 60.6 230.85C60.6 230.85 61.06 236.59 64.32 236.31C65.64 236.19 67.38 235.39 66.76 228.53C66.14 221.69 64.6 197.17 63.94 189.41C63.02 178.67 59.5 172.29 58.78 168.49C58.52 167.05 58.5 165.55 59.64 164.61C60.8002 163.659 61.7395 162.467 62.3925 161.117C63.0455 159.766 63.3966 158.29 63.4214 156.79C63.4461 155.29 63.1439 153.803 62.5358 152.432C61.9277 151.061 61.0282 149.838 59.9 148.85C59.4989 148.5 59.1851 148.06 58.9837 147.567C58.7823 147.074 58.6989 146.541 58.74 146.01C59.12 140.83 59.54 133.31 59.88 131.57C61.36 123.75 65.22 122.35 69.18 120.03C73.14 117.69 130.5 91.65 133.84 89.43C140.02 85.29 138.7 81.53 138.7 81.53Z" fill="#E2A610"/>
<path d="M138.7 81.53C133.76 88.51 123.5 85.39 123.5 85.39C123.5 85.39 97.28 97.01 99.02 94.91C100.74 92.81 118.7 82.59 118.7 82.59C118.7 82.59 117.36 77.67 117.5 75.57C117.5 75.57 73.3 101.11 56.16 113.39C51.74 116.57 46.26 121.77 50.72 126.95C52.78 129.33 56.76 129.83 59.3 127.95C60.84 126.83 62.04 125.19 63.4 123.89C65.08 122.25 67.12 121.21 69.12 120.03C73.08 117.69 130.44 91.65 133.78 89.43C140.02 85.29 138.7 81.53 138.7 81.53Z" fill="#FFCA28"/>
<path d="M52.22 175.77C49.58 175.77 47.8 175.55 46.18 175.17C45.891 175.104 45.6352 174.936 45.4591 174.698C45.283 174.459 45.1982 174.166 45.22 173.87L45.74 166.23C45.8 165.45 46.54 164.91 47.3 165.13C49.1 165.65 52.7 166.17 58.58 164.93C59.3 164.77 60.02 165.27 60.1 166.01L60.9 173.61C60.96 174.23 60.56 174.81 59.96 174.95C56.9 175.65 54.68 175.77 52.22 175.77Z" fill="#9E740B"/>
<path d="M198.12 174.89C198.12 174.89 201.66 156.41 200.24 136.75C200 133.43 197.96 130.57 196.38 142.19C195.48 148.85 193.52 168.79 190.18 181.25C195.28 177.57 198.12 174.89 198.12 174.89ZM131.46 65.63C132.92 66.09 134.26 67.21 134.64 68.71C135.14 70.71 133.88 72.71 132.52 74.27C129.86 77.33 126.2 80.01 122.14 79.87C120.8 79.83 119.36 79.39 118.54 78.33C117.96 77.59 117.76 76.63 117.7 75.69C117.34 68.83 125.1 63.63 131.46 65.63Z" fill="#616161"/>
</svg>
