<svg xmlns="http://www.w3.org/2000/svg" xml:space="preserve" width="800" height="800" viewBox="0 0 512 512"><circle cx="256" cy="256" r="256" style="fill:#4de1ff"/><path d="M35.283 281.959c17.613-.557 33.138-10.662 42.902-25.959 10.046 15.739 26.214 26.013 44.472 26.013 18.244 0 34.366-10.274 44.427-26.013 10.077 15.739 26.214 26.013 44.457 26.013 18.259 0 34.381-10.274 44.443-26.013 10.046 15.739 26.214 26.013 44.457 26.013 18.243 0 34.382-10.274 44.443-26.013 10.077 15.739 26.214 26.013 44.457 26.013 18.244 0 34.382-10.274 44.443-26.013 9.765 15.297 25.319 25.402 42.934 25.959C463.819 392.317 369.764 478.242 256 478.242S48.181 392.317 35.283 281.959c17.615-.557 33.169-10.662 42.934-25.959 10.061 15.739 26.199 26.013 44.443 26.013 18.243 0 34.381-10.274 44.457-26.013 10.061 15.739 26.2 26.013 44.443 26.013s34.41-10.274 44.457-26.013c10.062 15.739 26.184 26.013 44.443 26.013 18.244 0 34.382-10.274 44.457-26.013 10.061 15.739 26.183 26.013 44.427 26.013 18.259 0 34.426-10.274 44.472-26.013 9.764 15.297 25.289 25.402 42.902 25.959" style="fill:#096c80"/><path d="M438.857 196.923a8.44 8.44 0 0 1-7.238-4.098c-2.063-3.438-5.667-5.49-9.641-5.49-4.662 0-8.44-3.778-8.44-8.44s3.778-8.44 8.44-8.44c6.145 0 12.067 2.058 16.879 5.67 4.812-3.612 10.734-5.67 16.879-5.67 4.662 0 8.44 3.778 8.44 8.44s-3.778 8.44-8.44 8.44c-3.974 0-7.579 2.053-9.641 5.49a8.44 8.44 0 0 1-7.238 4.098zM371.341 153.576a8.44 8.44 0 0 1-7.238-4.098c-2.063-3.438-5.667-5.49-9.641-5.49a8.44 8.44 0 0 1-8.44-8.44 8.44 8.44 0 0 1 8.44-8.44c6.145 0 12.067 2.058 16.879 5.67 4.812-3.612 10.734-5.67 16.879-5.67a8.44 8.44 0 0 1 8.44 8.44 8.44 8.44 0 0 1-8.44 8.44c-3.974 0-7.579 2.053-9.641 5.49a8.438 8.438 0 0 1-7.238 4.098zM140.659 196.923a8.44 8.44 0 0 1-7.238-4.098c-2.063-3.438-5.667-5.49-9.641-5.49-4.662 0-8.44-3.778-8.44-8.44s3.778-8.44 8.44-8.44c6.145 0 12.067 2.058 16.879 5.67 4.812-3.612 10.734-5.67 16.879-5.67 4.662 0 8.44 3.778 8.44 8.44s-3.778 8.44-8.44 8.44c-3.974 0-7.579 2.053-9.641 5.49a8.44 8.44 0 0 1-7.238 4.098z" style="fill:#064855"/><circle cx="256" cy="144.879" r="53.451" style="fill:#ffc240"/></svg>