<svg width="256" height="256" viewBox="0 0 256 256" fill="none" xmlns="http://www.w3.org/2000/svg">
<path d="M128 240C189.856 240 240 189.856 240 128C240 66.1441 189.856 16 128 16C66.1441 16 16 66.1441 16 128C16 189.856 66.1441 240 128 240Z" fill="#4DE1FF"/>
<path d="M31.4363 139.357C39.142 139.113 45.9342 134.692 50.2059 128C54.601 134.886 61.6745 139.381 69.6624 139.381C77.6442 139.381 84.6975 134.886 89.0992 128C93.5079 134.886 100.568 139.381 108.549 139.381C116.537 139.381 123.591 134.886 127.993 128C132.388 134.886 139.462 139.381 147.443 139.381C155.424 139.381 162.485 134.886 166.887 128C171.295 134.886 178.355 139.381 186.337 139.381C194.318 139.381 201.379 134.886 205.78 128C210.053 134.692 216.858 139.113 224.564 139.357C218.921 187.639 177.772 225.231 128 225.231C78.2282 225.231 37.0792 187.639 31.4363 139.357C39.1428 139.113 45.9477 134.692 50.2199 128C54.6216 134.886 61.682 139.381 69.6637 139.381C77.645 139.381 84.7054 134.886 89.1137 128C93.5153 134.886 100.576 139.381 108.557 139.381C116.539 139.381 123.612 134.886 128.007 128C132.41 134.886 139.463 139.381 147.451 139.381C155.433 139.381 162.493 134.886 166.901 128C171.303 134.886 178.356 139.381 186.338 139.381C194.326 139.381 201.399 134.886 205.794 128C210.066 134.692 216.858 139.113 224.564 139.357" fill="#096C80"/>
<path d="M208 102.154C207.362 102.154 206.735 101.989 206.18 101.675C205.625 101.36 205.161 100.908 204.833 100.361C203.931 98.8568 202.354 97.9591 200.615 97.9591C198.576 97.9591 196.923 96.3062 196.923 94.2666C196.923 92.227 198.576 90.5741 200.615 90.5741C203.304 90.5741 205.895 91.4745 208 93.0547C210.105 91.4745 212.696 90.5741 215.384 90.5741C217.424 90.5741 219.077 92.227 219.077 94.2666C219.077 96.3062 217.424 97.9591 215.384 97.9591C213.646 97.9591 212.069 98.8573 211.167 100.361C210.838 100.908 210.374 101.36 209.819 101.675C209.264 101.989 208.638 102.154 208 102.154ZM178.462 83.1895C177.824 83.1896 177.197 83.0244 176.642 82.7103C176.087 82.3961 175.623 81.9435 175.295 81.3966C174.392 79.8925 172.816 78.9948 171.077 78.9948C170.098 78.9948 169.159 78.6057 168.466 77.9133C167.774 77.2208 167.385 76.2816 167.385 75.3023C167.385 74.323 167.774 73.3838 168.466 72.6913C169.159 71.9988 170.098 71.6098 171.077 71.6098C173.766 71.6098 176.356 72.5101 178.462 74.0904C180.567 72.5101 183.158 71.6098 185.846 71.6098C186.826 71.6098 187.765 71.9988 188.457 72.6913C189.15 73.3838 189.539 74.323 189.539 75.3023C189.539 76.2816 189.15 77.2208 188.457 77.9133C187.765 78.6057 186.826 78.9948 185.846 78.9948C184.108 78.9948 182.53 79.893 181.628 81.3966C181.3 81.9436 180.836 82.3962 180.281 82.7104C179.726 83.0246 179.099 83.1896 178.462 83.1895ZM77.5382 102.154C76.9005 102.154 76.2737 101.989 75.7187 101.675C75.1638 101.36 74.6997 100.908 74.3716 100.361C73.4691 98.8568 71.8923 97.9591 70.1537 97.9591C68.1141 97.9591 66.4612 96.3062 66.4612 94.2666C66.4612 92.227 68.1141 90.5741 70.1537 90.5741C72.8421 90.5741 75.433 91.4745 77.5382 93.0547C79.6435 91.4745 82.2344 90.5741 84.9228 90.5741C86.9624 90.5741 88.6153 92.227 88.6153 94.2666C88.6153 96.3062 86.9624 97.9591 84.9228 97.9591C83.1842 97.9591 81.607 98.8573 80.7049 100.361C80.3768 100.908 79.9127 101.36 79.3578 101.675C78.8028 101.989 78.176 102.154 77.5382 102.154Z" fill="#064855"/>
<path d="M128 102.769C140.915 102.769 151.385 92.2996 151.385 79.3846C151.385 66.4695 140.915 55.9998 128 55.9998C115.085 55.9998 104.615 66.4695 104.615 79.3846C104.615 92.2996 115.085 102.769 128 102.769Z" fill="#FFC240"/>
</svg>
