<svg width="256" height="256" viewBox="0 0 256 256" fill="none" xmlns="http://www.w3.org/2000/svg">
<path d="M84.9248 164.776C82.3828 162.507 82.1622 158.606 84.4316 156.064L91.6293 148.002L108.149 149.362L107.643 155.512L94.1853 154.404L84.9248 164.776Z" fill="#C93F3F"/>
<path d="M84.9248 178.439C82.3828 176.17 82.1622 172.269 84.4316 169.727L91.6293 161.666L108.149 163.026L107.643 169.175L94.1853 168.068L84.9248 178.439Z" fill="#C93F3F"/>
<path d="M170.836 164.776C173.378 162.507 173.598 158.606 171.329 156.064L164.131 148.002L147.611 149.362L148.117 155.512L161.575 154.404L170.836 164.776Z" fill="#C93F3F"/>
<path d="M84.9248 151.111C82.3828 148.841 82.1622 144.94 84.4316 142.398L91.6293 134.337L108.149 135.697L107.643 141.846L94.1853 140.739L84.9248 151.111Z" fill="#C93F3F"/>
<path d="M170.836 151.111C173.378 148.841 173.598 144.94 171.329 142.398L164.131 134.337L147.611 135.697L148.117 141.846L161.575 140.739L170.836 151.111Z" fill="#C93F3F"/>
<path d="M170.836 178.439C173.378 176.17 173.598 172.269 171.329 169.727L164.131 161.666L147.611 163.026L148.117 169.175L161.575 168.068L170.836 178.439Z" fill="#C93F3F"/>
<path d="M116.818 100.509C116.818 100.509 116.824 100.426 116.835 100.267C116.843 100.115 116.856 99.8901 116.873 99.596C116.905 98.983 116.936 98.0604 116.951 96.8793C116.964 95.6971 116.959 94.2539 116.908 92.5935C116.856 90.9336 116.766 89.0571 116.601 87.0118C116.454 84.964 116.2 82.7529 115.903 80.4151C115.572 78.0833 115.194 75.6226 114.673 73.1021C114.186 70.572 113.538 67.9916 112.838 65.3757C112.088 62.7778 111.276 60.1444 110.299 57.5714L109.572 55.638C109.306 55.0039 109.039 54.3704 108.774 53.7379C108.263 52.4619 107.667 51.2329 107.088 50.0038L106.655 49.0832L106.186 48.1876C105.873 47.5911 105.561 46.998 105.252 46.4079C104.631 45.2273 103.928 44.115 103.284 42.9873C102.61 41.88 101.888 40.8292 101.212 39.7758C100.505 38.7449 99.7635 37.7725 99.0671 36.803C97.6024 34.9239 96.1736 33.1682 94.7354 31.6541C94.3829 31.2682 94.0375 30.8898 93.7 30.5203C93.3426 30.1704 92.9936 29.8284 92.6537 29.4955C91.9687 28.8305 91.3188 28.1995 90.7082 27.6064C89.4142 26.5031 88.3075 25.5047 87.3505 24.7389C85.396 23.2522 84.2793 22.4031 84.2793 22.4031C84.2793 22.4031 85.4659 23.1569 87.5432 24.4768C88.5661 25.1627 89.7577 26.0673 91.158 27.0718C91.824 27.6169 92.5324 28.1975 93.2792 28.809C93.6521 29.1175 94.0345 29.4336 94.4259 29.7575C94.7988 30.102 95.1802 30.4549 95.5701 30.8149C97.1596 32.2287 98.7611 33.8876 100.42 35.6818C101.213 36.6088 102.057 37.5418 102.87 38.5368C103.652 39.5532 104.486 40.5726 105.275 41.6519C106.033 42.7502 106.855 43.84 107.596 45.0001C107.967 45.5812 108.34 46.1658 108.714 46.7529L109.277 47.6385L109.804 48.5496C110.508 49.7672 111.234 50.9907 111.874 52.2632C112.204 52.8953 112.534 53.5288 112.866 54.1633L113.789 56.1017C115.028 58.6872 116.101 61.346 117.11 63.9849C118.068 66.6392 118.97 69.2746 119.701 71.866C120.466 74.449 121.079 76.981 121.63 79.3912C122.149 81.8069 122.61 84.1023 122.945 86.2375C123.301 88.3701 123.562 90.338 123.765 92.0888C123.968 93.84 124.103 95.3761 124.197 96.6481C124.289 97.9216 124.34 98.9291 124.363 99.6315C124.373 99.9954 124.381 100.274 124.386 100.463C124.389 100.643 124.39 100.736 124.39 100.736L116.818 100.509Z" fill="#C93F3F"/>
<path d="M131.369 100.736C131.369 100.736 131.371 100.643 131.373 100.463C131.378 100.274 131.386 99.9954 131.396 99.6315C131.419 98.9291 131.47 97.9216 131.562 96.6481C131.656 95.3761 131.792 93.84 131.994 92.0888C132.197 90.3375 132.459 88.3696 132.814 86.2375C133.15 84.1023 133.611 81.8069 134.129 79.3912C134.68 76.981 135.293 74.449 136.059 71.866C136.788 69.2746 137.691 66.6392 138.649 63.9849C139.658 61.346 140.732 58.6867 141.971 56.1017L142.893 54.1633C143.224 53.5293 143.555 52.8958 143.886 52.2632C144.526 50.9907 145.251 49.7672 145.956 48.5496L146.482 47.6385L147.045 46.7529C147.42 46.1653 147.792 45.5812 148.163 45.0001C148.904 43.84 149.727 42.7502 150.484 41.6519C151.274 40.5731 152.107 39.5537 152.889 38.5368C153.702 37.5418 154.546 36.6088 155.339 35.6818C156.998 33.8871 158.6 32.2282 160.189 30.8149C160.579 30.4549 160.96 30.102 161.333 29.7575C161.725 29.4336 162.107 29.1175 162.48 28.809C163.227 28.197 163.935 27.6169 164.601 27.0718C166.002 26.0678 167.193 25.1627 168.216 24.4768C170.293 23.1574 171.48 22.4031 171.48 22.4031C171.48 22.4031 170.363 23.2522 168.409 24.7389C167.452 25.5047 166.345 26.5036 165.051 27.6064C164.441 28.1995 163.791 28.8305 163.106 29.4955C162.766 29.8289 162.417 30.1704 162.059 30.5203C161.722 30.8898 161.377 31.2677 161.024 31.6541C159.585 33.1682 158.157 34.9239 156.692 36.803C155.996 37.773 155.254 38.7454 154.548 39.7758C153.871 40.8292 153.149 41.88 152.475 42.9873C151.831 44.115 151.128 45.2273 150.507 46.4079C150.198 46.998 149.886 47.5911 149.573 48.1876L149.104 49.0832L148.671 50.0038C148.093 51.2329 147.497 52.4619 146.985 53.7379C146.719 54.3704 146.454 55.0039 146.188 55.638L145.46 57.5714C144.483 60.1444 143.672 62.7778 142.921 65.3757C142.221 67.9916 141.573 70.572 141.087 73.1021C140.565 75.6221 140.187 78.0833 139.857 80.4151C139.559 82.7529 139.305 84.964 139.159 87.0118C138.993 89.0571 138.904 90.9336 138.852 92.5935C138.801 94.2534 138.796 95.6971 138.808 96.8793C138.823 98.0604 138.854 98.983 138.886 99.596C138.903 99.8901 138.916 100.115 138.925 100.267C138.936 100.426 138.941 100.509 138.941 100.509L131.369 100.736Z" fill="#C93F3F"/>
<path d="M150.835 218.255H104.926C97.1213 218.255 90.7947 224.582 90.7947 232.386C90.7947 235.486 93.3082 238 96.4089 238H159.351C162.452 238 164.965 235.486 164.965 232.386C164.966 224.582 158.639 218.255 150.835 218.255Z" fill="#E24747"/>
<path d="M147.42 196.865H108.341L112.172 186.169H143.589L147.42 196.865Z" fill="#C93F3F"/>
<path d="M147.42 186.169H108.341L112.172 175.474H143.589L147.42 186.169Z" fill="#C93F3F"/>
<path d="M147.42 207.56H108.341L112.172 196.864H143.589L147.42 207.56Z" fill="#C93F3F"/>
<path d="M147.42 218.255H108.341L112.172 207.56H143.589L147.42 218.255Z" fill="#C93F3F"/>
<path d="M146.81 175.585C149.66 175.585 151.971 173.275 151.971 170.425V132.189C151.971 114.392 143.372 97.2457 127.881 84.1512C112.389 97.2452 103.79 114.392 103.79 132.189V170.425C103.79 173.275 106.101 175.585 108.951 175.585H146.81Z" fill="#F74B4B"/>
<path d="M137.273 114.499C140.629 114.499 143.35 111.778 143.35 108.422C143.35 105.065 140.629 102.345 137.273 102.345C133.916 102.345 131.196 105.065 131.196 108.422C131.196 111.778 133.916 114.499 137.273 114.499Z" fill="white"/>
<path d="M137.273 112.14C139.326 112.14 140.991 110.475 140.991 108.422C140.991 106.368 139.326 104.703 137.273 104.703C135.219 104.703 133.554 106.368 133.554 108.422C133.554 110.475 135.219 112.14 137.273 112.14Z" fill="#4D4D4D"/>
<path d="M118.488 114.499C121.845 114.499 124.565 111.778 124.565 108.422C124.565 105.065 121.845 102.345 118.488 102.345C115.132 102.345 112.411 105.065 112.411 108.422C112.411 111.778 115.132 114.499 118.488 114.499Z" fill="white"/>
<path d="M118.488 112.14C120.542 112.14 122.207 110.475 122.207 108.422C122.207 106.368 120.542 104.703 118.488 104.703C116.435 104.703 114.77 106.368 114.77 108.422C114.77 110.475 116.435 112.14 118.488 112.14Z" fill="#4D4D4D"/>
<path d="M75.2121 22.3122L72.5518 55.0085C68.929 54.7139 66.2307 51.5379 66.5258 47.9146L68.9594 18C54.8141 30.9442 47.8256 50.9054 52.3869 70.9375C55.4032 84.1847 62.9594 95.2184 73.0385 102.779C87.5942 89.8543 94.8454 69.6026 90.2186 49.2829C87.7969 38.6466 82.4438 29.4421 75.2121 22.3122Z" fill="#F74B4B"/>
<path d="M117.141 128.887H82.4047C74.2141 128.887 67.5505 122.224 67.5505 114.033V93.1302H78.0401V114.033C78.0401 116.44 79.998 118.398 82.4047 118.398H117.141V128.887Z" fill="#F74B4B"/>
<path d="M180.549 22.3122L183.209 55.0085C186.832 54.7139 189.53 51.5379 189.235 47.9146L186.801 18C200.947 30.9442 207.935 50.9054 203.374 70.9375C200.358 84.1847 192.802 95.2184 182.723 102.779C168.167 89.8543 160.916 69.6026 165.543 49.2829C167.964 38.6466 173.317 29.4421 180.549 22.3122Z" fill="#F74B4B"/>
<path d="M173.356 128.887H138.62V118.398H173.356C175.762 118.398 177.72 116.44 177.72 114.033V93.1302H188.21V114.033C188.21 122.224 181.546 128.887 173.356 128.887Z" fill="#F74B4B"/>
</svg>
