<svg width="256" height="256" viewBox="0 0 256 256" fill="none" xmlns="http://www.w3.org/2000/svg">
<path d="M45.388 237.673L182.896 173.917L84.6413 75.6615L20.8851 213.109C19.9708 215.303 16.4966 224.142 25.9441 232.553C36.1841 241.635 43.1936 238.587 45.388 237.673Z" fill="url(#paint0_linear_1_161)"/>
<path d="M70.8656 105.344L60.6256 127.591C57.3342 135.576 115.727 194.517 148.702 189.763L182.896 173.915C142.363 192.628 65.8675 116.193 70.8656 105.344Z" fill="url(#paint1_linear_1_161)"/>
<path d="M50.1417 150.203L47.7646 155.263L39.7188 172.572C39.6579 179.399 74.8274 214.507 96.8313 213.777L124.748 200.854C94.515 206.097 46.6674 157.578 50.1417 150.203Z" fill="url(#paint2_linear_1_161)"/>
<path d="M21.5547 211.77C24.4804 217.622 38.8043 231.885 50.6899 235.237L80.191 221.584L80.3738 221.462C62.2099 229.812 31.4899 198.849 30.9414 191.656L21.5547 211.77Z" fill="url(#paint3_linear_1_161)"/>
<path opacity="0.75" d="M45.388 237.673L182.896 173.917L84.6413 75.6615L20.8851 213.109C19.9708 215.303 16.4966 224.142 25.9441 232.553C36.1841 241.635 43.1936 238.587 45.388 237.673Z" fill="url(#paint4_radial_1_161)"/>
<path opacity="0.75" d="M45.388 237.673L182.896 173.917L84.6413 75.6615L20.8851 213.109C19.9708 215.303 16.4966 224.142 25.9441 232.553C36.1841 241.635 43.1936 238.587 45.388 237.673Z" fill="url(#paint5_radial_1_161)"/>
<path d="M131.636 76.1469C129.99 79.4992 126.759 79.9869 124.383 79.2555L128.284 71.5145C128.284 71.5145 132.672 72.4897 132.795 69.625L132.977 73.6478L131.636 76.1469Z" fill="url(#paint6_linear_1_161)"/>
<path d="M142.547 33.4818C142.547 33.4818 145.35 32.2019 147.118 28.5447C148.886 24.8876 140.17 18 140.17 18L136.086 25.1314C136.086 25.1314 142.974 29.6418 140.841 31.1657C138.646 32.6895 142.547 33.4818 142.547 33.4818Z" fill="url(#paint7_linear_1_161)"/>
<path d="M213.86 92.1194C215.14 80.9041 207.582 77.186 204.839 77.4908C204.839 77.4908 204.351 73.8336 209.228 72.6756C212.458 71.9441 220.687 79.2584 218.554 87.5479L213.86 92.1194Z" fill="url(#paint8_linear_1_161)"/>
<path d="M184.054 173.064C177.228 179.891 149.677 163.312 122.431 136.128C95.2463 108.943 78.6673 81.331 85.494 74.5044C92.3207 67.6777 119.871 84.2568 147.117 111.442C174.302 138.688 190.819 166.238 184.054 173.064Z" fill="url(#paint9_linear_1_161)"/>
<path d="M181.739 168.551C176.558 173.732 151.811 157.397 126.516 132.041C101.221 106.685 84.8247 81.999 90.0056 76.8181C95.1866 71.6371 119.933 87.9723 145.229 113.329C170.524 138.685 186.919 163.37 181.739 168.551Z" fill="url(#paint10_linear_1_161)"/>
<path d="M147.057 28.5469C147.057 28.5469 143.888 35.3125 143.461 36.0439C141.876 38.7259 137.426 39.6402 129.442 38.543C121.457 37.4459 119.141 37.8725 118.776 37.9335C118.41 38.0555 113.716 34.2764 113.716 34.2764L114.143 30.4364C114.143 30.4364 115.24 28.9735 118.897 29.4611C125.419 30.4364 144.619 33.6669 147.057 28.5469Z" fill="url(#paint11_linear_1_161)"/>
<path d="M162.904 141.732C169.304 134.418 175.278 140.148 179.056 134.905L172.595 128.323C168.816 133.504 163.331 128.628 156.565 135.759L162.904 141.732Z" fill="url(#paint12_linear_1_161)"/>
<path d="M93.4791 52.9874C102.317 58.2293 94.4544 65.4217 99.4525 69.5055L106.34 63.3493C101.342 59.2655 108.534 52.195 99.6963 46.9531L93.4791 52.9874Z" fill="url(#paint13_linear_1_161)"/>
<path d="M187.042 80.1083C187.286 80.0473 187.408 78.5845 191.004 76.0245C194.601 73.4645 202.707 77.4264 203.743 78.0359C204.841 78.6455 203.926 88.7025 203.926 88.7025C203.926 88.7025 193.808 77.914 188.749 80.4131C183.69 82.8511 187.042 80.1083 187.042 80.1083Z" fill="url(#paint14_linear_1_161)"/>
<path d="M188.382 105.162C188.382 105.162 188.016 109.124 186.188 110.952C182.896 114.183 177.654 109.306 171.01 111.074C171.01 111.074 174.058 103.333 174.363 102.724C174.363 102.724 177.044 101.078 179.788 102.663C182.591 104.187 185.029 104.674 186.736 103.76C188.443 102.846 188.382 105.162 188.382 105.162Z" fill="url(#paint15_linear_1_161)"/>
<path d="M206.24 87.7273C206.24 87.7273 199.717 90.714 198.864 91.1406C198.011 91.5673 196.061 76.3901 200.754 74.8664C205.508 73.3426 208.739 72.794 209.227 72.7331C209.714 72.6111 201.059 73.5254 206.24 87.7273Z" fill="#FFBF00"/>
<path d="M186.187 110.889C188.869 108.085 192.526 103.941 192.343 102.782C191.49 95.3463 185.456 78.9502 191.003 75.9635C191.003 75.9635 185.821 79.6207 184.237 80.7177C182.652 81.8149 181.493 84.7407 181.616 89.5558C181.92 97.9673 188.625 108.39 186.187 110.889Z" fill="#FFBF00"/>
<path d="M167.659 50.7291C163.21 81.9976 132.185 111.864 132.185 111.864L136.39 118.264C136.39 118.264 170.158 83.0948 174.485 51.7043L167.659 50.7291Z" fill="url(#paint16_linear_1_161)"/>
<path d="M110.423 37.6872C109.692 39.0281 111.825 41.2833 116.945 47.5005C122.065 53.7176 135.354 70.1748 131.574 76.1481L135.658 67.7367C135.658 67.7367 135.718 61.0319 131.696 54.51C125.357 44.27 113.228 33.2377 114.142 30.4948L110.423 37.6872Z" fill="url(#paint17_linear_1_161)"/>
<path d="M137.609 132.832C138.989 132.832 140.108 131.713 140.108 130.332C140.108 128.952 138.989 127.833 137.609 127.833C136.228 127.833 135.109 128.952 135.109 130.332C135.109 131.713 136.228 132.832 137.609 132.832Z" fill="url(#paint18_linear_1_161)"/>
<path d="M172.413 28.9721C173.793 28.9721 174.912 27.8531 174.912 26.473C174.912 25.0928 173.793 23.974 172.413 23.974C171.033 23.974 169.914 25.0928 169.914 26.473C169.914 27.8531 171.033 28.9721 172.413 28.9721Z" fill="url(#paint19_linear_1_161)"/>
<path d="M148.944 65.2377C150.324 65.2377 151.443 64.1188 151.443 62.7386C151.443 61.3585 150.324 60.2396 148.944 60.2396C147.564 60.2396 146.445 61.3585 146.445 62.7386C146.445 64.1188 147.564 65.2377 148.944 65.2377Z" fill="url(#paint20_linear_1_161)"/>
<path d="M163.757 111.014C165.137 111.014 166.256 109.895 166.256 108.515C166.256 107.135 165.137 106.016 163.757 106.016C162.376 106.016 161.258 107.135 161.258 108.515C161.258 109.895 162.376 111.014 163.757 111.014Z" fill="url(#paint21_linear_1_161)"/>
<path d="M228.002 104.92C229.381 104.92 230.5 103.801 230.5 102.421C230.5 101.041 229.381 99.9218 228.002 99.9218C226.622 99.9218 225.503 101.041 225.503 102.421C225.503 103.801 226.622 104.92 228.002 104.92Z" fill="url(#paint22_linear_1_161)"/>
<path d="M212.093 157.645C213.473 157.645 214.592 156.526 214.592 155.145C214.592 153.765 213.473 152.646 212.093 152.646C210.713 152.646 209.594 153.765 209.594 155.145C209.594 156.526 210.713 157.645 212.093 157.645Z" fill="url(#paint23_linear_1_161)"/>
<path d="M201.67 125.457C203.051 125.457 204.17 124.338 204.17 122.958C204.17 121.577 203.051 120.458 201.67 120.458C200.291 120.458 199.172 121.577 199.172 122.958C199.172 124.338 200.291 125.457 201.67 125.457Z" fill="url(#paint24_linear_1_161)"/>
<path d="M215.385 57.5606C216.765 57.5606 217.884 56.4418 217.884 55.0615C217.884 53.6813 216.765 52.5625 215.385 52.5625C214.004 52.5625 212.885 53.6813 212.885 55.0615C212.885 56.4418 214.004 57.5606 215.385 57.5606Z" fill="url(#paint25_linear_1_161)"/>
<path d="M187.345 65.7272C188.725 65.7272 189.844 64.6083 189.844 63.2281C189.844 61.8479 188.725 60.7291 187.345 60.7291C185.965 60.7291 184.846 61.8479 184.846 63.2281C184.846 64.6083 185.965 65.7272 187.345 65.7272Z" fill="url(#paint26_linear_1_161)"/>
<path d="M165.951 164.469C191.428 143.562 234.582 139.235 234.582 139.235L235.985 129.604C235.985 129.604 184.907 135.699 157.844 159.165C160.769 161.177 163.452 162.945 165.951 164.469Z" fill="url(#paint27_linear_1_161)"/>
<path d="M102.013 104.246C103.72 106.562 105.609 108.879 107.62 111.317C113.045 99.3699 111.887 89.9832 111.887 89.9832L105.244 85.8385C105.914 93.2138 103.659 100.284 102.013 104.246Z" fill="url(#paint28_linear_1_161)"/>
<defs>
<linearGradient id="paint0_linear_1_161" x1="12.8158" y1="94.8633" x2="121.601" y2="223.78" gradientUnits="userSpaceOnUse">
<stop offset="0.2544" stop-color="#FBE07A"/>
<stop offset="1" stop-color="#FF40BF"/>
</linearGradient>
<linearGradient id="paint1_linear_1_161" x1="71.9364" y1="104.296" x2="162.213" y2="194.573" gradientUnits="userSpaceOnUse">
<stop offset="0.2544" stop-color="#9F00E8"/>
<stop offset="1" stop-color="#7000A3"/>
</linearGradient>
<linearGradient id="paint2_linear_1_161" x1="46.9135" y1="153.443" x2="109.524" y2="216.053" gradientUnits="userSpaceOnUse">
<stop offset="0.2544" stop-color="#9F00E8"/>
<stop offset="1" stop-color="#7000A3"/>
</linearGradient>
<linearGradient id="paint3_linear_1_161" x1="27.987" y1="194.527" x2="67.6104" y2="234.15" gradientUnits="userSpaceOnUse">
<stop offset="0.2544" stop-color="#9F00E8"/>
<stop offset="1" stop-color="#7000A3"/>
</linearGradient>
<radialGradient id="paint4_radial_1_161" cx="0" cy="0" r="1" gradientUnits="userSpaceOnUse" gradientTransform="translate(71.7622 138) rotate(119.598) scale(62.4512 19.1194)">
<stop stop-color="white" stop-opacity="0.5"/>
<stop offset="1" stop-color="white" stop-opacity="0"/>
</radialGradient>
<radialGradient id="paint5_radial_1_161" cx="0" cy="0" r="1" gradientUnits="userSpaceOnUse" gradientTransform="translate(115.648 193.983) rotate(151.7) scale(98.9971 30.8761)">
<stop stop-color="#440063" stop-opacity="0.75"/>
<stop offset="1" stop-color="#420061" stop-opacity="0"/>
</radialGradient>
<linearGradient id="paint6_linear_1_161" x1="132.098" y1="73.8701" x2="147.059" y2="69.092" gradientUnits="userSpaceOnUse">
<stop stop-color="#BD2719"/>
<stop offset="1" stop-color="#FF4E0D"/>
</linearGradient>
<linearGradient id="paint7_linear_1_161" x1="146.009" y1="36.7489" x2="139.31" y2="20.1068" gradientUnits="userSpaceOnUse">
<stop stop-color="#BD2719"/>
<stop offset="1" stop-color="#FF4E0D"/>
</linearGradient>
<linearGradient id="paint8_linear_1_161" x1="220.512" y1="87.5778" x2="195.562" y2="71.5904" gradientUnits="userSpaceOnUse">
<stop stop-color="#FFCB4B"/>
<stop offset="1" stop-color="#E81CA2"/>
</linearGradient>
<linearGradient id="paint9_linear_1_161" x1="156.585" y1="54.9725" x2="100.837" y2="230.733" gradientUnits="userSpaceOnUse">
<stop offset="0.2544" stop-color="#FBE07A"/>
<stop offset="1" stop-color="#E81CA2"/>
</linearGradient>
<linearGradient id="paint10_linear_1_161" x1="174.888" y1="95.3159" x2="89.3311" y2="155.322" gradientUnits="userSpaceOnUse">
<stop stop-color="#FBE07A"/>
<stop offset="1" stop-color="white"/>
</linearGradient>
<linearGradient id="paint11_linear_1_161" x1="106.021" y1="34.3309" x2="133.653" y2="33.9122" gradientUnits="userSpaceOnUse">
<stop stop-color="#BD2719"/>
<stop offset="1" stop-color="#FF4E0D"/>
</linearGradient>
<linearGradient id="paint12_linear_1_161" x1="171.067" y1="129.619" x2="164.421" y2="141.542" gradientUnits="userSpaceOnUse">
<stop stop-color="#FF9214"/>
<stop offset="1" stop-color="#FF4E0D"/>
</linearGradient>
<linearGradient id="paint13_linear_1_161" x1="93.4397" y1="37.9701" x2="103.488" y2="66.7187" gradientUnits="userSpaceOnUse">
<stop stop-color="#80DAFE"/>
<stop offset="1" stop-color="#008EE6"/>
</linearGradient>
<linearGradient id="paint14_linear_1_161" x1="196.124" y1="93.8318" x2="193.823" y2="64.8316" gradientUnits="userSpaceOnUse">
<stop stop-color="#FFCB4B"/>
<stop offset="1" stop-color="#E81CA2"/>
</linearGradient>
<linearGradient id="paint15_linear_1_161" x1="171.766" y1="106.057" x2="187.79" y2="108.653" gradientUnits="userSpaceOnUse">
<stop stop-color="#FFCB4B"/>
<stop offset="1" stop-color="#E81CA2"/>
</linearGradient>
<linearGradient id="paint16_linear_1_161" x1="160.755" y1="51.8542" x2="136.985" y2="149.677" gradientUnits="userSpaceOnUse">
<stop offset="0.2544" stop-color="#E100FF"/>
<stop offset="1" stop-color="#7000A3"/>
</linearGradient>
<linearGradient id="paint17_linear_1_161" x1="114.002" y1="35.8269" x2="131.586" y2="65.1337" gradientUnits="userSpaceOnUse">
<stop stop-color="#FF9214"/>
<stop offset="1" stop-color="#FF4E0D"/>
</linearGradient>
<linearGradient id="paint18_linear_1_161" x1="132.829" y1="116.266" x2="142.318" y2="144.178" gradientUnits="userSpaceOnUse">
<stop stop-color="#FFCB4B"/>
<stop offset="1" stop-color="#E81CA2"/>
</linearGradient>
<linearGradient id="paint19_linear_1_161" x1="164.789" y1="13.9742" x2="180.419" y2="39.6526" gradientUnits="userSpaceOnUse">
<stop stop-color="#FBE07A"/>
<stop offset="1" stop-color="#E81CA2"/>
</linearGradient>
<linearGradient id="paint20_linear_1_161" x1="148.572" y1="61.3557" x2="152.479" y2="76.1486" gradientUnits="userSpaceOnUse">
<stop stop-color="#80DAFE"/>
<stop offset="1" stop-color="#008EE6"/>
</linearGradient>
<linearGradient id="paint21_linear_1_161" x1="162.073" y1="103.769" x2="164.458" y2="110.593" gradientUnits="userSpaceOnUse">
<stop stop-color="#80DAFE"/>
<stop offset="1" stop-color="#008EE6"/>
</linearGradient>
<linearGradient id="paint22_linear_1_161" x1="229.814" y1="96.5868" x2="225.348" y2="110.822" gradientUnits="userSpaceOnUse">
<stop stop-color="#FFCB4B"/>
<stop offset="1" stop-color="#E81CA2"/>
</linearGradient>
<linearGradient id="paint23_linear_1_161" x1="211.357" y1="139.177" x2="212.752" y2="169.601" gradientUnits="userSpaceOnUse">
<stop stop-color="#FFCB4B"/>
<stop offset="1" stop-color="#E81CA2"/>
</linearGradient>
<linearGradient id="paint24_linear_1_161" x1="200.034" y1="118.234" x2="202.418" y2="125.058" gradientUnits="userSpaceOnUse">
<stop offset="0.2544" stop-color="#9F00E8"/>
<stop offset="1" stop-color="#7000A3"/>
</linearGradient>
<linearGradient id="paint25_linear_1_161" x1="220.236" y1="46.7337" x2="211.025" y2="62.6431" gradientUnits="userSpaceOnUse">
<stop stop-color="#80DAFE"/>
<stop offset="1" stop-color="#008EE6"/>
</linearGradient>
<linearGradient id="paint26_linear_1_161" x1="186.701" y1="59.6822" x2="189.771" y2="76.7081" gradientUnits="userSpaceOnUse">
<stop stop-color="#FF9214"/>
<stop offset="1" stop-color="#FF4E0D"/>
</linearGradient>
<linearGradient id="paint27_linear_1_161" x1="140.571" y1="145.773" x2="229.56" y2="147.602" gradientUnits="userSpaceOnUse">
<stop stop-color="#80DAFE"/>
<stop offset="1" stop-color="#008EE6"/>
</linearGradient>
<linearGradient id="paint28_linear_1_161" x1="91.4112" y1="135.874" x2="112.745" y2="82.8454" gradientUnits="userSpaceOnUse">
<stop stop-color="#FBE07A"/>
<stop offset="1" stop-color="#E81CA2"/>
</linearGradient>
</defs>
</svg>
