<svg width="256" height="256" viewBox="0 0 256 256" fill="none" xmlns="http://www.w3.org/2000/svg">
<path d="M205.296 77.7554L194.923 122.681L95.7815 99.7929L106.153 54.8672L205.296 77.7554ZM191.12 139.086L180.747 184.011L81.6055 161.123L91.9772 116.198L191.12 139.086ZM77.8167 177.53L176.96 200.419L168.869 237.367L64.0759 237.366L77.8167 177.53Z" fill="#FFC200"/>
<path d="M200.786 35.3916L195.355 58.9157L122.625 42.1248L128.056 18.6003L200.786 35.3916Z" fill="#E0E7EA"/>
<path d="M184.184 194.207C184.538 192.675 186.08 191.712 187.611 192.065C189.142 192.418 190.106 193.961 189.752 195.492L178.101 246.756C177.803 248.044 176.634 248.983 175.317 248.972L53.5524 248.974C51.7161 248.99 50.3506 247.282 50.7684 245.472L82.7602 106.903C83.1136 105.372 84.6555 104.409 86.1865 104.762C87.7175 105.116 88.6811 106.657 88.3282 108.188L57.1479 243.243L173.013 243.236L184.184 194.207ZM101.905 49.3783L91.2681 95.4515C90.9143 96.9829 89.3723 97.9466 87.8413 97.5927C86.3104 97.2394 85.3467 95.6974 85.7001 94.1664L96.9801 45.3088C97.333 43.7779 98.8754 42.8142 100.406 43.168L215.834 69.8163C217.365 70.1701 218.329 71.712 217.975 73.243L192.58 183.243C192.227 184.774 190.685 185.737 189.154 185.384C187.623 185.03 186.659 183.488 187.013 181.957L211.765 74.742L101.905 49.3783Z" fill="black"/>
<path d="M198.387 65.0551L205.376 34.7804C205.907 32.4837 204.461 30.1705 202.165 29.6402L129.331 12.8252C127.035 12.2949 124.721 13.7404 124.191 16.0371L117.201 46.3123L198.387 65.0551ZM130.616 7.25762L203.415 24.0645C208.809 25.3097 212.155 30.6638 210.909 36.0576L203.278 69.1164C202.924 70.6473 201.382 71.611 199.851 71.2572L113.132 51.2375C111.6 50.8841 110.637 49.3422 110.991 47.8112L118.622 14.752C119.868 9.35819 125.257 6.02014 130.616 7.25762ZM61.5904 167.955C60.0594 167.602 59.0953 166.06 59.4492 164.529C59.8025 162.998 61.3449 162.034 62.8759 162.388L196.295 193.19C197.826 193.543 198.79 195.085 198.436 196.616C198.083 198.147 196.54 199.111 195.009 198.758L61.5904 167.955ZM75.7623 106.571C74.2309 106.217 73.2677 104.674 73.6215 103.143C73.9749 101.612 75.5168 100.649 77.0478 101.003L210.467 131.805C211.998 132.158 212.962 133.7 212.608 135.231C212.255 136.762 210.713 137.726 209.181 137.372L75.7623 106.571V106.571Z" fill="black"/>
<path d="M89.3961 46.0878C87.8647 45.734 86.901 44.1916 87.2549 42.6606C87.6082 41.1296 89.1506 40.166 90.6816 40.5198L224.101 71.3216C225.632 71.6755 226.595 73.2169 226.242 74.7484C225.889 76.2798 224.346 77.243 222.815 76.8896L89.3961 46.0878ZM143.472 73.3431C141.941 72.9897 140.978 71.4478 141.331 69.9164C141.684 68.3845 143.227 67.4217 144.757 67.7756L211.467 83.1767C212.998 83.5296 213.962 85.072 213.608 86.603C213.254 88.134 211.713 89.0981 210.181 88.7438L143.472 73.3431ZM69.6064 186.264C68.075 185.91 67.1118 184.369 67.4651 182.838C67.819 181.306 69.3605 180.343 70.8914 180.696L137.601 196.097C139.132 196.45 140.096 197.993 139.743 199.524C139.39 201.055 137.847 202.019 136.316 201.665L69.6059 186.264H69.6064Z" fill="black"/>
<path d="M111.036 109.062L114.499 94.0636C115.833 88.2871 121.573 84.7008 127.314 86.0261C133.056 87.3518 136.642 93.0917 135.317 98.8334L131.854 113.832M155.057 119.225L158.528 104.192C159.854 98.4499 165.593 94.8636 171.335 96.1893C177.077 97.515 180.663 103.255 179.338 108.996L175.875 123.995" fill="white"/>
<path d="M113.82 109.705L108.252 108.419L111.715 93.4213C113.402 86.1134 120.683 81.563 127.957 83.2425C135.229 84.9221 139.78 92.203 138.101 99.4761L134.638 114.474L129.07 113.189L132.533 98.1907C133.505 93.9799 130.882 89.7824 126.671 88.8105C122.461 87.8391 118.263 90.4613 117.291 94.6716L113.82 109.705ZM156.591 120.203L151.023 118.917L154.485 103.918C156.173 96.6108 163.446 92.0951 170.719 93.7747C178.027 95.4615 182.543 102.735 180.863 110.008L177.401 125.007L171.833 123.721L175.295 108.723C176.267 104.512 173.644 100.315 169.434 99.3427C165.223 98.3703 161.026 100.993 160.053 105.204L156.591 120.203Z" fill="black"/>
<path d="M131.746 49.7975L134.47 38.001C135.514 33.4771 140.089 30.6483 144.717 31.7166C149.311 32.7772 152.217 37.3335 151.173 41.8574L148.449 53.654" fill="#FF684C"/>
<path d="M131.746 49.7975L134.47 38.001C135.514 33.4771 140.089 30.6478 144.717 31.7166C149.311 32.7772 152.218 37.3335 151.173 41.8574L148.45 53.654" fill="black"/>
<path d="M134.53 50.4402L128.962 49.1552L131.685 37.3586C133.092 31.2686 139.2 27.5109 145.36 28.9321C151.485 30.3465 155.363 36.4101 153.957 42.5001L151.233 54.2967L145.666 53.0108L148.389 41.2146C149.045 38.214 147.136 35.2073 144.074 34.5001C141.013 33.7929 137.945 35.6512 137.253 38.6437L134.53 50.4402Z" fill="black"/>
<path d="M167.102 57.9602L169.825 46.1632C170.869 41.6393 175.445 38.8105 180.073 39.8789C184.666 40.9395 187.573 45.4963 186.529 50.0197L183.805 61.8163" fill="#FF684C"/>
<path d="M167.102 57.9602L169.825 46.1632C170.869 41.6393 175.445 38.8105 180.073 39.8789C184.666 40.9395 187.573 45.4958 186.529 50.0197L183.805 61.8167" fill="black"/>
<path d="M169.886 58.6025L164.318 57.3175L167.041 45.5209C168.447 39.4309 174.556 35.6732 180.715 37.0953C186.841 38.5093 190.718 44.5724 189.312 50.6624L186.589 62.4595L181.021 61.1735L183.745 49.3769C184.436 46.384 182.527 43.3779 179.43 42.6629C176.368 41.9557 173.3 43.8135 172.609 46.806L169.886 58.6025Z" fill="black"/>
<path d="M96.8654 170.443L100.328 155.445C101.661 149.668 107.401 146.081 113.143 147.407C118.885 148.732 122.471 154.472 121.146 160.214L117.683 175.213M140.885 180.606L144.357 165.573C145.682 159.83 151.422 156.245 157.163 157.57C162.906 158.896 166.492 164.635 165.167 170.377L161.704 185.375" fill="white"/>
<path d="M99.6489 171.085L94.0818 169.8L97.5442 154.802C99.231 147.494 106.513 142.944 113.786 144.623C121.059 146.303 125.609 153.584 123.93 160.857L120.467 175.855L114.9 174.57L118.362 159.572C119.334 155.36 116.711 151.163 112.501 150.191C108.29 149.219 104.092 151.842 103.12 156.053L99.6489 171.085ZM143.496 181.208L137.928 179.923L141.399 164.89C143.078 157.616 150.36 153.067 157.633 154.746C164.94 156.433 169.455 163.707 167.776 170.98L164.314 185.978L158.746 184.692L162.209 169.694C163.181 165.483 160.558 161.286 156.347 160.314C152.136 159.341 147.939 161.964 146.967 166.176L143.496 181.208Z" fill="black"/>
<path d="M79.723 244.694L85.3953 220.126C86.7205 214.384 92.4599 210.798 98.2026 212.123C103.944 213.449 107.531 219.189 106.205 224.931L101.593 244.905M125.953 245.287L129.416 230.289C130.741 224.548 136.481 220.961 142.223 222.286C147.964 223.612 151.551 229.352 150.226 235.094L147.792 245.638" fill="white"/>
<path d="M82.5075 245.337L76.9395 244.052L82.6108 219.484C84.2903 212.211 91.5717 207.66 98.8448 209.34C106.118 211.019 110.668 218.3 108.988 225.573L104.377 245.548L98.8096 244.262L103.421 224.288C104.393 220.077 101.77 215.88 97.5593 214.908C93.3486 213.936 89.1511 216.558 88.1792 220.769L82.507 245.337L82.5075 245.337ZM128.563 245.89L122.995 244.604L126.458 229.606C128.137 222.333 135.419 217.783 142.692 219.463C149.965 221.142 154.514 228.423 152.835 235.696L150.401 246.24L144.833 244.955L147.268 234.411C148.24 230.2 145.617 226.003 141.406 225.03C137.195 224.058 132.998 226.681 132.025 230.892L128.563 245.89Z" fill="black"/>
<path d="M26.6573 249.416C25.0857 249.416 23.8002 248.13 23.8002 246.559C23.8002 244.988 25.0857 243.702 26.6573 243.702H231.621C233.193 243.702 234.479 244.988 234.479 246.559C234.479 248.13 233.193 249.416 231.621 249.416H26.6573Z" fill="black"/>
</svg>
