<svg xmlns="http://www.w3.org/2000/svg" width="560" height="560" fill="none" viewBox="0 0 560 560"><path fill="#FFC200" d="m449.084 171.758-22.689 98.275-216.873-50.068 22.688-98.275 216.874 50.068Zm-31.01 134.161-22.689 98.274-216.873-50.068L201.2 255.85l216.874 50.069Zm-247.85 84.096 216.875 50.07-17.699 80.824-229.234-.004 30.058-130.89Z"/><path fill="#E0E7EA" d="m439.219 79.087-11.88 51.459-159.097-36.73 11.881-51.46 159.096 36.731Z"/><path fill="#000" d="M402.903 426.495c.774-3.35 4.147-5.457 7.497-4.684 3.348.772 5.456 4.146 4.683 7.495l-25.487 112.141c-.651 2.817-3.209 4.872-6.091 4.847l-266.359.005c-4.017.034-7.004-3.701-6.09-7.66l69.982-303.12c.773-3.35 4.146-5.457 7.495-4.684 3.349.774 5.457 4.146 4.685 7.495l-68.207 295.433 253.454-.017 24.439-107.251h-.001ZM222.917 109.683l-23.268 100.785c-.774 3.35-4.147 5.458-7.496 4.684-3.349-.773-5.457-4.146-4.684-7.495l24.675-106.876c.772-3.349 4.146-5.457 7.495-4.683l252.499 58.293c3.349.774 5.457 4.147 4.683 7.496l-55.552 240.624c-.773 3.349-4.146 5.457-7.495 4.684-3.349-.773-5.457-4.147-4.684-7.496l54.147-234.533-240.32-55.483Z"/><path fill="#000" d="m433.971 143.976 15.29-66.226c1.16-5.024-2.002-10.084-7.026-11.244L282.911 29.723c-5.023-1.16-10.084 2.002-11.243 7.026l-15.29 66.227 177.594 41h-.001ZM285.723 17.544l159.248 36.765c11.799 2.724 19.117 14.436 16.393 26.235L444.67 152.86c-.774 3.349-4.148 5.457-7.497 4.683L247.476 113.75c-3.35-.773-5.458-4.146-4.684-7.495l16.694-72.317c2.725-11.799 14.514-19.101 26.237-16.394ZM134.729 369.07c-3.349-.773-5.458-4.146-4.684-7.495.773-3.349 4.147-5.458 7.496-4.683l291.854 67.379c3.35.773 5.457 4.146 4.684 7.495-.772 3.349-4.147 5.458-7.496 4.685l-291.854-67.381Zm31.001-134.279c-3.35-.774-5.457-4.148-4.683-7.497.773-3.349 4.146-5.457 7.495-4.683l291.855 67.38c3.349.772 5.457 4.146 4.683 7.495-.773 3.349-4.146 5.458-7.496 4.684L165.73 234.792Z"/><path fill="#000" d="M195.554 102.485c-3.35-.774-5.458-4.148-4.684-7.497.773-3.349 4.147-5.457 7.496-4.683l291.854 67.379c3.349.774 5.457 4.146 4.684 7.496-.772 3.35-4.147 5.457-7.496 4.684l-291.854-67.38v.001Zm118.291 59.621c-3.348-.773-5.456-4.146-4.684-7.496.773-3.351 4.147-5.457 7.496-4.683l145.928 33.69c3.349.772 5.457 4.146 4.683 7.495s-4.145 5.458-7.496 4.683l-145.927-33.689ZM152.264 409.121c-3.35-.774-5.457-4.146-4.684-7.496.774-3.35 4.146-5.457 7.495-4.684l145.928 33.69c3.348.772 5.457 4.147 4.684 7.496-.772 3.349-4.147 5.457-7.496 4.683l-145.928-33.689h.001Z"/><path fill="#fff" d="m242.892 240.241 7.575-32.809c2.917-12.636 15.473-20.481 28.033-17.582 12.56 2.9 20.405 15.456 17.505 28.016l-7.574 32.809m50.757 11.797 7.591-32.884c2.901-12.561 15.455-20.406 28.016-17.506 12.56 2.9 20.406 15.456 17.506 28.015l-7.574 32.809"/><path fill="#000" d="m248.982 241.647-12.18-2.812 7.575-32.808c3.691-15.986 19.618-25.94 35.528-22.266 15.909 3.674 25.864 19.601 22.19 35.511l-7.574 32.808-12.18-2.811 7.574-32.809c2.127-9.211-3.611-18.393-12.822-20.519-9.21-2.125-18.393 3.611-20.519 12.821l-7.592 32.885Zm93.56 22.964-12.18-2.813 7.575-32.809c3.691-15.985 19.601-25.863 35.511-22.189 15.986 3.69 25.864 19.601 22.19 35.511l-7.574 32.809-12.18-2.812 7.574-32.808c2.127-9.212-3.611-18.393-12.822-20.52-9.211-2.127-18.392 3.61-20.519 12.822l-7.575 32.809Z"/><path fill="#FF684C" d="m288.194 110.6 5.958-25.805c2.284-9.896 12.292-16.084 22.417-13.747 10.048 2.32 16.406 12.287 14.122 22.183l-5.958 25.805"/><path fill="#000" d="m288.195 110.6 5.957-25.805c2.285-9.896 12.292-16.085 22.417-13.747 10.048 2.32 16.407 12.287 14.122 22.183l-5.957 25.805"/><path fill="#000" d="m294.284 112.006-12.18-2.811 5.958-25.805c3.076-13.322 16.439-21.542 29.913-18.433 13.398 3.094 21.881 16.358 18.806 29.68l-5.958 25.805-12.179-2.813 5.957-25.804c1.436-6.564-2.74-13.141-9.438-14.688-6.698-1.547-13.409 2.518-14.921 9.064l-5.958 25.805Z"/><path fill="#FF684C" d="m365.535 128.456 5.958-25.806c2.284-9.896 12.292-16.084 22.417-13.747 10.048 2.32 16.406 12.288 14.122 22.183l-5.958 25.805"/><path fill="#000" d="m365.535 128.456 5.958-25.806c2.284-9.896 12.292-16.084 22.417-13.747 10.048 2.32 16.406 12.287 14.122 22.183l-5.958 25.806"/><path fill="#000" d="m371.625 129.861-12.179-2.811 5.956-25.805c3.076-13.322 16.44-21.542 29.913-18.431 13.399 3.093 21.881 16.356 18.806 29.678l-5.957 25.806-12.18-2.813 5.958-25.805c1.511-6.547-2.663-13.123-9.438-14.687-6.699-1.547-13.41 2.517-14.921 9.063l-5.958 25.805Z"/><path fill="#fff" d="m211.893 374.511 7.575-32.808c2.916-12.636 15.472-20.482 28.032-17.583 12.561 2.899 20.406 15.456 17.507 28.016l-7.575 32.81m50.755 11.797 7.593-32.885c2.9-12.561 15.456-20.405 28.015-17.506 12.561 2.9 20.407 15.455 17.507 28.016l-7.575 32.808"/><path fill="#000" d="m217.982 375.917-12.178-2.811 7.574-32.809c3.69-15.986 19.619-25.939 35.529-22.266 15.909 3.674 25.862 19.602 22.189 35.511l-7.574 32.809-12.179-2.812 7.574-32.808c2.127-9.212-3.611-18.394-12.822-20.521-9.211-2.126-18.393 3.612-20.519 12.824l-7.594 32.883Zm95.915 22.144-12.179-2.812 7.592-32.885c3.673-15.91 19.602-25.862 35.512-22.189 15.984 3.69 25.862 19.601 22.189 35.511l-7.575 32.809-12.179-2.813 7.575-32.809c2.126-9.21-3.612-18.393-12.823-20.519-9.211-2.127-18.393 3.611-20.519 12.823l-7.593 32.884Z"/><path fill="#fff" d="m174.394 536.937 12.408-53.743c2.899-12.56 15.454-20.406 28.016-17.506 12.56 2.9 20.405 15.455 17.505 28.016l-10.088 43.694m53.287.836 7.575-32.808c2.899-12.56 15.455-20.406 28.016-17.507 12.559 2.901 20.405 15.456 17.506 28.016L323.294 539"/><path fill="#000" d="m180.485 538.343-12.18-2.812 12.406-53.742c3.674-15.91 19.602-25.864 35.512-22.19 15.91 3.673 25.863 19.601 22.189 35.51l-10.087 43.695-12.179-2.812 10.087-43.694c2.127-9.211-3.611-18.393-12.822-20.519-9.211-2.126-18.393 3.61-20.519 12.821l-12.408 53.742.001.001Zm100.747 1.21-12.18-2.813 7.575-32.808c3.673-15.91 19.602-25.863 35.511-22.189 15.91 3.673 25.862 19.601 22.189 35.51l-5.324 23.065-12.18-2.812 5.325-23.064c2.127-9.211-3.611-18.393-12.822-20.52-9.211-2.127-18.394 3.611-20.521 12.822l-7.573 32.809Z"/><path fill="#000" d="M58.313 547.266c-3.438 0-6.25-2.813-6.25-6.25s2.812-6.25 6.25-6.25h448.359c3.438 0 6.251 2.813 6.251 6.25s-2.813 6.25-6.251 6.25H58.313Z"/></svg>