<svg xmlns="http://www.w3.org/2000/svg" viewBox="0 0 504 504" style="enable-background:new 0 0 504 504" xml:space="preserve"><path style="fill:#cdeef9" d="M32 57h440v324H32z"/><path style="fill:#54b265" d="M123.2 223.8 277.6 381h156l-236-231.2z"/><path style="fill:#e8bb85" d="M32 251v130h249.6L92 189z"/><path style="fill:#3c8e51" d="m396 189.4-77.2 76.4L434 385h38.4V266.2s0-.4-.4-.4l-76-76.4z"/><path style="fill:#33a5d2" d="M16 25h472v32H16z"/><path style="fill:#e9b526" d="M336.4 147.8c0 13.2-10.8 24-24 24s-24-10.8-24-24 10.8-24 24-24c5.2 0 10 1.6 13.6 4.4l10.4 19.6z"/><path d="M470 387H30c-2.4 0-4-1.6-4-4V61c0-2.4 1.6-4 4-4s4 1.6 4 4v318h432V61c0-2.4 1.6-4 4-4s4 1.6 4 4v322c0 2.4-1.6 4-4 4z"/><path d="M486 63h-34c-2.4 0-4-1.6-4-4s1.6-4 4-4h30V31H18v24h398c2.4 0 4 1.6 4 4s-1.6 4-4 4H14c-2.4 0-4-1.6-4-4V27c0-2.4 1.6-4 4-4h472c2.4 0 4 1.6 4 4v32c0 2.4-1.6 4-4 4z"/><path d="M500 31H4c-2.4 0-4-1.6-4-4s1.6-4 4-4h496c2.4 0 4 1.6 4 4s-1.6 4-4 4z"/><path d="M250 29c-2.4 0-4-1.6-4-4V5c0-2.4 1.6-4 4-4s4 1.6 4 4v20c0 2.4-1.6 4-4 4zM250 501c-2.4 0-4-1.6-4-4V385c0-2.4 1.6-4 4-4s4 1.6 4 4v112c0 2.4-1.6 4-4 4z"/><path d="M368 503H136c-2.4 0-4-1.6-4-4s1.6-4 4-4h232c2.4 0 4 1.6 4 4s-1.6 4-4 4zM32 250.2c-1.2 0-2-.4-2.8-1.2-1.6-1.6-1.6-4 0-5.6l59.2-59.2c1.6-1.6 4-1.6 5.6 0s1.6 4 0 5.6L34.8 249c-.8.8-1.6 1.2-2.8 1.2z"/><path d="M182 281.8c-1.2 0-2-.4-2.8-1.2l-90.8-90.8c-1.6-1.6-1.6-4 0-5.6s4-1.6 5.6 0l90.8 90.8c1.6 1.6 1.6 4 0 5.6-.8.8-2 1.2-2.8 1.2zM138.4 215c-1.2 0-2-.4-2.8-1.2-1.6-1.6-1.6-4 0-5.6l63.2-63.2c1.6-1.6 4-1.6 5.6 0s1.6 4 0 5.6l-63.2 63.2c-.8.8-1.6 1.2-2.8 1.2zM332 254.6c-1.2 0-2-.4-2.8-1.2-1.6-1.6-1.6-4 0-5.6l63.6-63.6c1.6-1.6 4-1.6 5.6 0s1.6 4 0 5.6l-63.6 63.6c-.8.8-1.6 1.2-2.8 1.2z"/><path d="M352.4 302.2c-1.2 0-2-.4-2.8-1.2L199.2 150.6c-1.6-1.6-1.6-4 0-5.6s4-1.6 5.6 0l150.4 150.4c1.6 1.6 1.6 4 0 5.6-.8.8-2 1.2-2.8 1.2zM469.2 263.8c-1.2 0-2-.4-2.8-1.2l-73.2-73.2c-1.6-1.6-1.6-4 0-5.6s4-1.6 5.6 0L472 257c1.6 1.6 1.6 4 0 5.6-.8.8-2 1.2-2.8 1.2zM312.4 175.8c-15.2 0-28-12.4-28-28 0-15.2 12.4-28 28-28 5.6 0 11.2 1.6 16 5.2 2 1.2 2.4 3.6.8 5.6-1.2 2-3.6 2.4-5.6.8-3.2-2.4-7.2-3.6-11.6-3.6-10.8 0-20 8.8-20 20 0 10.8 8.8 20 20 20s20-8.8 20-20c0-2.4 1.6-4 4-4s4 1.6 4 4c.4 15.2-12 28-27.6 28z"/></svg>