<svg width="256" height="256" viewBox="0 0 256 256" fill="none" xmlns="http://www.w3.org/2000/svg">
<path d="M24.9841 36.2222H231.016V187.937H24.9841V36.2222Z" fill="#CDEEF9"/>
<path d="M67.689 114.327L139.987 187.937H213.035L102.527 79.6762L67.689 114.327Z" fill="#54B265"/>
<path d="M24.9841 127.063V187.937H141.86L53.0794 98.0317L24.9841 127.063Z" fill="#E8BB85"/>
<path d="M195.429 98.2191L159.279 133.994L213.222 189.81H231.203V134.181C231.203 134.181 231.203 133.994 231.016 133.994L195.429 98.2191Z" fill="#3C8E51"/>
<path d="M17.4919 21.2381H238.508V36.2222H17.4919V21.2381Z" fill="#33A5D2"/>
<path d="M167.521 78.7397C167.521 84.9206 162.463 89.9778 156.283 89.9778C150.102 89.9778 145.044 84.9206 145.044 78.7397C145.044 72.5587 150.102 67.5016 156.283 67.5016C158.717 67.5016 160.965 68.2508 162.651 69.5619L167.521 78.7397Z" fill="#E9B526"/>
<path d="M230.079 190.746H24.0476C22.9238 190.746 22.1746 189.997 22.1746 188.873V38.0953C22.1746 36.9714 22.9238 36.2222 24.0476 36.2222C25.1714 36.2222 25.9206 36.9714 25.9206 38.0953V187H228.206V38.0953C228.206 36.9714 228.956 36.2222 230.079 36.2222C231.203 36.2222 231.952 36.9714 231.952 38.0953V188.873C231.952 189.997 231.203 190.746 230.079 190.746Z" fill="black"/>
<path d="M237.572 39.0317H221.651C220.527 39.0317 219.778 38.2825 219.778 37.1587C219.778 36.0349 220.527 35.2857 221.651 35.2857H235.698V24.0476H18.4286V35.2857H204.794C205.918 35.2857 206.667 36.0349 206.667 37.1587C206.667 38.2825 205.918 39.0317 204.794 39.0317H16.5556C15.4318 39.0317 14.6826 38.2825 14.6826 37.1587V22.1746C14.6826 21.0508 15.4318 20.3016 16.5556 20.3016H237.572C238.695 20.3016 239.445 21.0508 239.445 22.1746V37.1587C239.445 38.2825 238.695 39.0317 237.572 39.0317Z" fill="black"/>
<path d="M244.127 24.0476H11.873C10.7492 24.0476 10 23.2984 10 22.1746C10 21.0508 10.7492 20.3016 11.873 20.3016H244.127C245.251 20.3016 246 21.0508 246 22.1746C246 23.2984 245.251 24.0476 244.127 24.0476Z" fill="black"/>
<path d="M127.063 23.1111C125.94 23.1111 125.19 22.3619 125.19 21.2381V11.873C125.19 10.7492 125.94 10 127.063 10C128.187 10 128.936 10.7492 128.936 11.873V21.2381C128.936 22.3619 128.187 23.1111 127.063 23.1111ZM127.063 244.127C125.94 244.127 125.19 243.378 125.19 242.254V189.81C125.19 188.686 125.94 187.936 127.063 187.936C128.187 187.936 128.936 188.686 128.936 189.81V242.254C128.936 243.378 128.187 244.127 127.063 244.127Z" fill="black"/>
<path d="M182.317 245.064H73.6825C72.5587 245.064 71.8095 244.314 71.8095 243.191C71.8095 242.067 72.5587 241.317 73.6825 241.317H182.317C183.441 241.317 184.19 242.067 184.19 243.191C184.19 244.314 183.441 245.064 182.317 245.064ZM24.9841 126.689C24.4222 126.689 24.0476 126.502 23.673 126.127C22.9238 125.378 22.9238 124.254 23.673 123.505L51.3936 95.7841C52.1428 95.0349 53.2666 95.0349 54.0158 95.7841C54.7651 96.5333 54.7651 97.6572 54.0158 98.4064L26.2952 126.127C25.9206 126.502 25.546 126.689 24.9841 126.689Z" fill="black"/>
<path d="M95.2223 141.486C94.6604 141.486 94.2858 141.298 93.9112 140.924L51.3937 98.4063C50.6445 97.6571 50.6445 96.5333 51.3937 95.7841C52.1429 95.0349 53.2667 95.0349 54.0159 95.7841L96.5334 138.302C97.2826 139.051 97.2826 140.175 96.5334 140.924C96.1588 141.298 95.5969 141.486 95.2223 141.486ZM74.8064 110.206C74.2445 110.206 73.8699 110.019 73.4953 109.644C72.7461 108.895 72.7461 107.771 73.4953 107.022L103.089 77.4286C103.838 76.6794 104.962 76.6794 105.711 77.4286C106.46 78.1778 106.46 79.3016 105.711 80.0508L76.1175 109.644C75.7429 110.019 75.3683 110.206 74.8064 110.206ZM165.46 128.749C164.898 128.749 164.524 128.562 164.149 128.187C163.4 127.438 163.4 126.314 164.149 125.565L193.93 95.7841C194.679 95.0349 195.803 95.0349 196.552 95.7841C197.302 96.5333 197.302 97.6571 196.552 98.4063L166.771 128.187C166.397 128.562 166.022 128.749 165.46 128.749Z" fill="black"/>
<path d="M175.013 151.038C174.451 151.038 174.076 150.851 173.702 150.476L103.276 80.0508C102.527 79.3016 102.527 78.1778 103.276 77.4286C104.025 76.6794 105.149 76.6794 105.898 77.4286L176.324 147.854C177.073 148.603 177.073 149.727 176.324 150.476C175.949 150.851 175.387 151.038 175.013 151.038ZM229.705 133.057C229.143 133.057 228.768 132.87 228.394 132.495L194.118 98.219C193.368 97.4698 193.368 96.346 194.118 95.5968C194.867 94.8476 195.991 94.8476 196.74 95.5968L231.016 129.873C231.765 130.622 231.765 131.746 231.016 132.495C230.641 132.87 230.079 133.057 229.705 133.057ZM156.283 91.8508C149.165 91.8508 143.171 86.0445 143.171 78.7397C143.171 71.6222 148.978 65.6286 156.283 65.6286C158.905 65.6286 161.527 66.3778 163.775 68.0635C164.711 68.6254 164.898 69.7492 164.149 70.6857C163.587 71.6222 162.464 71.8095 161.527 71.0603C160.029 69.9365 158.156 69.3746 156.095 69.3746C151.038 69.3746 146.73 73.4952 146.73 78.7397C146.73 83.7968 150.851 88.1048 156.095 88.1048C161.34 88.1048 165.46 83.9841 165.46 78.7397C165.46 77.6159 166.21 76.8667 167.333 76.8667C168.457 76.8667 169.206 77.6159 169.206 78.7397C169.394 85.8571 163.587 91.8508 156.283 91.8508Z" fill="black"/>
</svg>
