<svg width="256" height="256" viewBox="0 0 256 256" fill="none" xmlns="http://www.w3.org/2000/svg">
<path d="M172.109 80.4085C169.065 80.4085 166.325 80.713 163.585 81.0175C155.365 76.1465 145.928 73.4065 135.882 73.4065C125.835 73.4065 116.702 73.1025 108.483 77.669C106.047 77.3645 103.916 80.4085 101.785 80.4085C62.818 80.4085 31.4615 112.679 31.4615 152.864C31.4615 193.049 62.818 225.319 101.785 225.319H106.047C114.571 230.799 124.922 234.147 135.882 234.147C146.841 234.147 145.015 230.799 153.843 225.319C155.974 225.623 170.283 225.623 172.414 225.623C210.772 225.319 242.433 192.745 242.433 152.864C242.433 112.983 210.772 80.4085 172.109 80.4085Z" fill="url(#paint0_linear_1_131)"/>
<path d="M127.358 70.3625H130.706C131.924 44.4855 148.059 40.528 154.148 35.9615C156.279 34.4395 157.496 31.395 156.279 28.9595C155.365 27.4375 154.148 26.5245 152.625 26.2195C150.799 25.611 148.668 26.5245 147.146 27.742C121.573 45.399 123.704 64.2735 124.009 70.667C124.922 70.3625 126.14 70.3625 127.358 70.3625Z" fill="#8BC53F"/>
<path d="M123.095 77.973C132.837 77.973 141.971 80.4085 149.886 84.975C152.626 84.6705 155.365 84.3665 158.105 84.3665C195.55 84.3665 225.994 114.809 225.994 151.95C225.994 189.395 195.55 219.839 158.105 219.839C155.974 219.839 153.843 219.839 152.017 219.534C143.492 224.709 133.751 227.754 123.095 227.754C112.745 227.754 102.699 224.709 94.479 219.534H90.5215C53.076 219.534 22.633 189.091 22.633 151.646C22.633 114.2 53.076 84.062 90.5215 84.062C92.6525 84.062 94.7835 84.062 96.9145 84.3665C104.83 80.4085 113.658 77.973 123.095 77.973ZM123.095 68.84C113.354 68.84 103.612 70.9715 94.7835 75.538H90.5215C48.2055 75.538 13.5 109.938 13.5 152.255C13.5 194.571 47.901 229.276 90.5215 229.276H92.348C101.785 234.451 112.44 237.191 123.095 237.191C134.055 237.191 144.71 234.451 154.148 228.972H158.105C200.422 228.972 234.822 194.571 234.822 151.95C234.822 109.33 200.726 75.2335 158.41 75.2335C156.279 75.2335 154.148 75.2335 152.017 75.538C142.884 70.9715 133.142 68.84 123.095 68.84Z" fill="#231F20"/>
<path d="M145.624 27.133C145.928 27.133 146.537 27.133 146.841 27.4375C148.059 27.742 149.581 28.655 150.19 30.1775C151.408 32.3085 150.494 35.3525 148.363 36.875C142.579 41.137 127.662 44.79 126.444 69.1445H120.051C119.747 63.056 117.92 45.399 141.666 28.9595C142.884 27.742 144.101 27.133 145.624 27.133ZM145.624 18C142.579 18 139.535 18.9135 136.491 21.0445C109.092 39.9195 110.309 61.534 110.918 68.536V69.1445L111.527 78.2775L120.66 77.669H126.14L135.273 78.2775L135.882 69.1445C136.795 53.923 143.797 49.9655 149.886 46.6165C151.408 45.7035 152.93 45.0945 154.148 44.1815C159.932 39.919 162.063 32.3085 159.019 25.9155C157.192 22.5665 154.148 19.8265 150.19 18.609C148.363 18.304 146.841 18 145.624 18ZM85.6505 111.157C85.0415 111.157 84.737 111.156 84.1285 110.852C82.606 109.938 82.302 108.112 82.9105 106.59C87.477 98.6745 91.739 93.8035 91.739 93.4995C92.957 92.2815 94.7835 91.977 96.001 93.195C97.219 94.4125 97.5235 96.239 96.3055 97.457C96.3055 97.457 92.348 102.024 88.086 109.634C87.7815 110.548 86.8685 111.157 85.6505 111.157Z" fill="#231F20"/>
<path d="M84.1285 110.548C82.606 109.634 82.302 107.808 82.9105 106.286C83.824 104.764 85.6505 104.459 87.1725 105.068C88.695 105.981 88.9995 107.808 88.3905 109.33C87.7815 110.243 86.8685 110.852 85.6505 110.852C85.0415 111.157 84.737 110.852 84.1285 110.548ZM78.0395 185.134C76.822 185.134 75.604 184.525 75.3 183.307C71.342 174.479 69.5155 165.041 69.211 155.299C69.211 153.473 70.429 152.255 72.2555 152.255C73.7775 152.255 75.3 153.473 75.3 155.299C75.604 164.128 77.431 172.652 80.7795 180.872C80.7795 181.176 81.084 181.785 81.084 182.089C81.084 183.307 80.475 184.525 79.2575 184.829C78.953 184.829 78.6485 185.134 78.0395 185.134ZM72.8645 147.384H72.56C71.038 147.08 69.82 145.862 69.82 144.34V144.035C71.038 134.902 73.7775 125.769 77.7355 116.636C78.344 115.114 80.1705 114.505 81.693 115.114C82.606 115.419 82.9105 116.028 83.215 116.941C83.5195 117.854 83.5195 118.463 83.215 119.376C79.2575 127.9 76.822 136.425 75.9085 144.949C75.9085 146.166 74.3865 147.384 72.8645 147.384ZM92.0435 207.357C91.1305 207.357 90.217 207.053 89.608 206.14C86.2595 202.182 82.9105 197.615 80.475 193.353C79.562 191.831 80.1705 190.005 81.3885 189.091C82.9105 188.178 84.737 188.787 85.6505 190.005C88.086 193.962 91.1305 197.92 94.1745 201.878C95.3925 203.095 95.088 205.226 93.87 206.14C93.566 207.053 92.6525 207.357 92.0435 207.357ZM160.846 111.157C159.932 111.157 158.714 110.548 158.105 109.634C153.843 102.024 149.886 97.7616 149.886 97.4571C148.668 96.2391 148.973 94.4126 150.191 93.1951C151.408 91.9771 153.234 92.2816 154.452 93.4996C154.756 93.8036 158.715 98.3701 163.281 106.59C164.194 108.112 163.586 109.939 162.063 110.852C162.063 110.852 161.455 111.157 160.846 111.157Z" fill="#231F20"/>
<path d="M158.41 109.634C157.497 108.112 158.106 106.285 159.628 105.372C161.15 104.459 162.976 105.067 163.889 106.59C164.803 108.112 164.194 109.938 162.672 110.852C162.063 111.156 161.758 111.156 161.15 111.156C159.932 111.156 159.019 110.547 158.41 109.634ZM168.456 185.133C168.152 185.133 167.543 185.133 167.238 184.829C166.02 184.22 165.412 183.307 165.412 182.089C165.412 181.785 165.412 181.176 165.717 180.871C169.065 172.652 170.891 164.127 171.196 155.299C171.196 153.777 172.718 152.255 174.24 152.255C175.153 152.255 175.763 152.559 176.372 153.168C176.981 153.777 177.284 154.386 177.284 155.299C176.98 165.041 175.153 174.174 171.196 183.307C170.891 184.22 169.674 185.133 168.456 185.133ZM173.631 147.384C172.109 147.384 170.892 146.166 170.587 144.644C169.37 136.12 166.934 127.596 163.281 119.071V118.767C162.672 117.245 163.281 115.723 164.803 114.809C166.325 114.2 168.152 114.809 168.76 116.331C173.022 125.464 175.458 134.597 176.676 143.73V144.035C176.676 145.557 175.458 146.775 173.936 147.079C173.936 147.384 173.936 147.384 173.631 147.384ZM154.452 207.357C153.843 207.357 152.93 207.052 152.626 206.748C151.408 205.53 151.104 203.704 152.322 202.486C155.67 198.528 158.41 194.571 160.846 190.613C161.759 189.091 163.585 188.786 165.107 189.7C166.629 190.613 166.934 192.44 166.021 193.962C163.281 198.224 160.236 202.486 156.888 206.748C156.279 206.748 155.365 207.357 154.452 207.357Z" fill="#231F20"/>
<path d="M107.874 113.592C96.0015 113.592 85.955 107.199 80.171 97.7615C69.82 101.719 62.209 110.547 60.078 121.507C65.8625 129.727 75.3 135.206 86.2595 135.206C100.872 135.206 113.05 125.464 117.007 112.374C113.963 112.983 110.919 113.592 107.874 113.592ZM147.146 113.592C159.019 113.592 169.065 107.199 174.85 97.7615C185.2 101.719 192.811 110.547 194.942 121.507C189.158 129.727 179.72 135.206 168.761 135.206C154.148 135.206 141.971 125.464 138.013 112.374C140.753 112.983 143.797 113.592 147.146 113.592ZM124.314 187.264C89.608 187.264 59.7735 169.607 46.0745 144.339C48.2055 179.653 82.606 207.966 124.314 207.966C166.325 207.966 200.422 179.653 202.857 144.339C189.158 169.607 159.019 187.264 124.314 187.264Z" fill="#FFF100"/>
<path d="M83.215 139.469C71.342 139.469 60.078 133.685 53.3805 123.943C52.772 123.029 52.4675 121.812 52.772 120.594C55.2075 108.417 64.036 97.7615 75.9085 93.4995C78.0395 92.586 80.475 93.4995 81.3885 95.326C86.2595 103.85 95.3925 109.026 105.134 109.026C107.874 109.026 110.309 108.721 113.049 107.808C114.571 107.199 116.398 107.808 117.616 109.026C118.833 110.243 119.138 112.07 118.833 113.592C113.658 128.814 99.35 139.469 83.215 139.469ZM62.209 120.29C67.3845 126.683 75.3 130.336 83.5195 130.336C92.957 130.336 101.481 125.465 106.352 117.854C94.479 118.463 82.9105 112.679 75.9085 103.241C68.9065 106.895 64.036 112.983 62.209 120.29ZM165.412 139.469C149.277 139.469 134.968 128.814 130.402 113.288C129.793 111.765 130.402 109.939 131.62 108.721C132.837 107.503 134.664 107.199 136.186 107.503C138.622 108.112 141.361 108.721 144.101 108.721C153.843 108.721 162.672 103.546 167.847 95.0215C169.065 93.195 171.196 92.2816 173.327 93.1951C185.2 97.7616 194.029 108.112 196.464 120.29C196.769 121.507 196.464 122.725 195.855 123.638C188.548 133.685 177.285 139.469 165.412 139.469ZM142.579 118.159C147.45 125.769 156.279 130.64 165.412 130.64C173.631 130.64 181.547 126.987 186.722 120.594C184.591 113.288 179.72 107.199 173.022 103.546C166.02 112.983 154.452 118.463 142.579 118.159Z" fill="#231F20"/>
<path d="M202.857 144.339C200.726 179.653 166.325 207.966 124.313 207.966C82.302 207.966 48.2055 179.653 46.0745 144.339C59.774 169.607 89.608 187.264 124.313 187.264C159.019 187.264 189.157 169.607 202.857 144.339ZM202.857 135.206H201.944C200.422 135.511 198.9 136.12 197.682 137.033C197.073 137.642 196.159 138.251 195.855 138.86C195.55 139.164 195.247 139.773 194.942 140.077C182.46 163.214 154.756 177.827 124.618 177.827C94.479 177.827 66.7755 162.91 54.294 139.773C52.772 136.728 49.423 134.902 46.379 134.902C45.4655 134.902 44.552 134.902 43.9435 135.206C39.681 136.424 36.9415 140.382 37.246 144.644C39.681 185.133 78.0395 216.794 124.618 216.794C170.891 216.794 209.25 185.438 211.99 144.948V144.035C211.99 139.164 208.032 135.206 203.161 134.902C203.161 135.206 202.857 135.206 202.857 135.206Z" fill="#231F20"/>
<defs>
<linearGradient id="paint0_linear_1_131" x1="136.846" y1="253.021" x2="136.846" y2="33.218" gradientUnits="userSpaceOnUse">
<stop stop-color="#F6921E"/>
<stop offset="0.344" stop-color="#F7951D"/>
<stop offset="0.598" stop-color="#F89E1A"/>
<stop offset="0.823" stop-color="#FBAE14"/>
<stop offset="1" stop-color="#FFC10E"/>
</linearGradient>
</defs>
</svg>
