<svg xmlns="http://www.w3.org/2000/svg" width="512" height="512" fill="none" viewBox="0 0 512 512"><path fill="url(#a)" d="M344.219 161.817c-6.089 0-11.569.609-17.048 1.218-16.44-9.742-35.315-15.222-55.407-15.222-20.093 0-38.359-.608-54.798 8.525-4.871-.609-9.133 5.479-13.395 5.479-77.935 0-140.648 64.54-140.648 144.91 0 80.371 62.713 144.91 140.648 144.91h8.524c17.048 10.96 37.75 17.657 59.669 17.657 21.919 0 18.266-6.697 35.923-17.657 4.262.609 32.879.609 37.141.609 76.717-.609 140.039-65.757 140.039-145.519 0-79.761-63.322-144.91-140.648-144.91Z"/><path fill="#8BC53F" d="M254.716 141.725h6.697c2.436-51.754 34.705-59.669 46.883-68.802 4.262-3.044 6.697-9.133 4.262-14.004-1.827-3.044-4.262-4.87-7.307-5.48-3.653-1.217-7.915.61-10.959 3.045-51.145 35.314-46.883 73.063-46.274 85.85 1.827-.609 4.262-.609 6.698-.609Z"/><path fill="#231F20" d="M246.191 156.946c19.484 0 37.75 4.871 53.581 14.004 5.479-.609 10.959-1.217 16.439-1.217 74.89 0 135.777 60.886 135.777 135.168 0 74.89-60.887 135.777-135.777 135.777-4.262 0-8.524 0-12.177-.609-17.049 10.35-36.532 16.439-57.843 16.439-20.701 0-40.793-6.089-57.233-16.439h-7.915c-74.891 0-135.777-60.887-135.777-135.777 0-74.891 60.886-135.168 135.777-135.168 4.262 0 8.524 0 12.786.609 15.831-7.916 33.488-12.787 52.362-12.787Zm0-18.266c-19.483 0-38.967 4.263-56.624 13.396h-8.524C96.411 152.076 27 220.877 27 305.51c0 84.632 68.802 154.042 154.043 154.042h3.653c18.875 10.351 40.185 15.831 61.495 15.831 21.92 0 43.23-5.48 62.105-16.439h7.915c84.632 0 153.434-68.802 153.434-154.043S401.452 151.467 316.82 151.467c-4.262 0-8.524 0-12.786.609-18.266-9.133-37.75-13.396-57.843-13.396Z"/><path fill="#231F20" d="M291.248 55.266c.608 0 1.826 0 2.435.609 2.435.609 5.48 2.435 6.697 5.48 2.436 4.262.609 10.35-3.653 13.395-11.568 8.524-41.403 15.83-43.838 64.539H240.103c-.609-12.177-4.262-47.491 43.229-80.37 2.436-2.435 4.871-3.653 7.916-3.653Zm0-18.266c-6.089 0-12.178 1.827-18.266 6.089-54.798 37.75-52.363 80.979-51.145 94.983v1.217l1.218 18.266 18.266-1.217h10.959l18.266 1.217 1.218-18.266c1.826-30.443 15.83-38.358 28.008-45.056 3.044-1.826 6.088-3.044 8.524-4.87 11.568-8.525 15.83-23.746 9.742-36.532-3.654-6.698-9.742-12.178-17.658-14.613-3.653-.61-6.697-1.218-9.132-1.218ZM171.301 223.313c-1.218 0-1.827 0-3.044-.609-3.045-1.827-3.653-5.48-2.436-8.524 9.133-15.831 17.657-25.573 17.657-26.181 2.436-2.436 6.089-3.045 8.524-.609 2.436 2.435 3.045 6.088.609 8.524 0 0-7.915 9.133-16.439 24.354-.609 1.827-2.435 3.045-4.871 3.045Z"/><path fill="#231F20" d="M168.257 222.095c-3.045-1.827-3.653-5.48-2.436-8.524 1.827-3.044 5.48-3.653 8.524-2.436 3.045 1.827 3.654 5.48 2.436 8.525-1.218 1.826-3.044 3.044-5.48 3.044-1.218.609-1.827 0-3.044-.609ZM156.079 371.267c-2.435 0-4.871-1.218-5.479-3.653-7.916-17.657-11.569-36.532-12.178-56.016 0-3.653 2.436-6.088 6.089-6.088 3.044 0 6.089 2.435 6.089 6.088.608 17.657 4.262 34.706 10.959 51.145 0 .609.609 1.826.609 2.435 0 2.436-1.218 4.871-3.653 5.48-.609 0-1.218.609-2.436.609Zm-10.35-75.499h-.609c-3.044-.609-5.48-3.045-5.48-6.089v-.609c2.436-18.266 7.915-36.532 15.831-54.798 1.217-3.044 4.87-4.262 7.915-3.044 1.826.609 2.435 1.827 3.044 3.653.609 1.827.609 3.044 0 4.871-7.915 17.048-12.786 34.097-14.613 51.145 0 2.435-3.044 4.871-6.088 4.871ZM184.087 415.714c-1.826 0-3.653-.609-4.871-2.435-6.697-7.916-13.395-17.049-18.266-25.573-1.826-3.044-.609-6.697 1.827-8.524 3.044-1.826 6.697-.609 8.524 1.827 4.871 7.915 10.96 15.83 17.048 23.746 2.436 2.435 1.827 6.697-.609 8.524-.608 1.826-2.435 2.435-3.653 2.435ZM321.691 223.313c-1.827 0-4.262-1.218-5.48-3.045-8.524-15.221-16.439-23.745-16.439-24.354-2.436-2.436-1.827-6.089.609-8.524 2.435-2.436 6.088-1.827 8.524.609.608.608 8.524 9.741 17.657 26.181 1.826 3.044.609 6.697-2.436 8.524 0 0-1.217.609-2.435.609Z"/><path fill="#231F20" d="M316.82 220.268c-1.827-3.044-.609-6.697 2.435-8.524 3.045-1.826 6.698-.609 8.524 2.436 1.827 3.044.609 6.697-2.435 8.524-1.218.609-1.827.609-3.044.609-2.436 0-4.262-1.218-5.48-3.045ZM336.912 371.267c-.608 0-1.826 0-2.435-.609-2.436-1.218-3.653-3.044-3.653-5.48 0-.608 0-1.826.609-2.435 6.697-16.439 10.35-33.488 10.959-51.145 0-3.044 3.045-6.088 6.089-6.088 1.826 0 3.044.608 4.262 1.826 1.218 1.218 1.826 2.436 1.826 4.262-.608 19.484-4.262 37.75-12.177 56.016-.609 1.826-3.044 3.653-5.48 3.653Zm10.351-75.499c-3.044 0-5.48-2.436-6.089-5.48-2.435-17.048-7.306-34.096-14.612-51.145v-.609c-1.218-3.044 0-6.088 3.044-7.915 3.044-1.218 6.698 0 7.915 3.044 8.524 18.266 13.395 36.532 15.831 54.798v.609c0 3.045-2.436 5.48-5.48 6.089 0 .609 0 .609-.609.609ZM308.905 415.714c-1.218 0-3.045-.609-3.654-1.218-2.435-2.435-3.044-6.088-.608-8.524 6.697-7.915 12.177-15.83 17.048-23.745 1.826-3.045 5.48-3.654 8.524-1.827 3.044 1.827 3.653 5.48 1.827 8.524-5.48 8.524-11.569 17.048-18.266 25.572-1.218 0-3.045 1.218-4.871 1.218Z"/><path fill="#FFF100" d="M215.748 228.184c-23.745 0-43.838-12.786-55.406-31.661-20.702 7.915-35.924 25.572-40.186 47.491 11.569 16.44 30.444 27.399 52.363 27.399 29.225 0 53.58-19.484 61.495-45.665-6.088 1.218-12.177 2.436-18.266 2.436ZM294.292 228.184c23.746 0 43.838-12.786 55.407-31.661 20.701 7.915 35.923 25.572 40.185 47.491-11.569 16.44-30.444 27.399-52.363 27.399-29.225 0-53.58-19.484-61.495-45.665 5.48 1.218 11.568 2.436 18.266 2.436ZM248.627 375.529c-69.411 0-129.08-35.314-156.478-85.85 4.262 70.628 73.063 127.253 156.478 127.253 84.023 0 152.216-56.625 157.087-127.253-27.399 50.536-87.676 85.85-157.087 85.85Z"/><path fill="#231F20" d="M166.43 279.937c-23.746 0-46.274-11.568-59.669-31.052-1.217-1.827-1.826-4.262-1.217-6.697 4.871-24.355 22.528-45.665 46.273-54.189 4.262-1.827 9.133 0 10.96 3.653 9.742 17.048 28.008 27.399 47.491 27.399 5.48 0 10.351-.609 15.831-2.436 3.044-1.217 6.697 0 9.133 2.436 2.435 2.435 3.044 6.088 2.435 9.133-10.35 30.443-38.967 51.753-71.237 51.753Zm-42.012-38.358c10.351 12.786 26.182 20.092 42.621 20.092 18.875 0 35.923-9.742 45.665-24.963-23.746 1.218-46.883-10.351-60.887-29.226-14.004 7.307-23.745 19.484-27.399 34.097ZM330.824 279.937c-32.27 0-60.887-21.31-70.02-52.362-1.217-3.045 0-6.698 2.436-9.133 2.435-2.436 6.088-3.045 9.133-2.436 4.871 1.218 10.35 2.436 15.83 2.436 19.484 0 37.141-10.351 47.492-27.399 2.435-3.653 6.697-5.48 10.959-3.653 23.746 9.133 41.403 29.834 46.274 54.189.609 2.435 0 4.871-1.218 6.697-14.613 20.093-37.14 31.661-60.886 31.661Zm-45.665-42.62c9.742 15.221 27.399 24.963 45.665 24.963 16.439 0 32.27-7.306 42.62-20.092-4.262-14.613-14.004-26.791-27.399-34.097-14.004 18.875-37.14 29.835-60.886 29.226Z"/><path fill="#231F20" d="M405.714 289.679c-4.262 70.628-73.064 127.253-157.087 127.253S96.411 360.307 92.149 289.679c27.399 50.536 87.067 85.85 156.478 85.85 69.411 0 129.688-35.314 157.087-85.85Zm0-18.266h-1.826c-3.045.609-6.089 1.827-8.525 3.653-1.217 1.218-3.044 2.436-3.653 3.654-.609.608-1.217 1.826-1.826 2.435-24.964 46.274-80.371 75.499-140.648 75.499-60.278 0-115.685-29.834-140.648-76.108-3.044-6.089-9.742-9.742-15.83-9.742-1.827 0-3.654 0-4.871.609-8.525 2.436-14.004 10.351-13.395 18.875 4.87 80.979 81.587 144.301 174.744 144.301 92.547 0 169.264-62.713 174.744-143.692v-1.827c0-9.742-7.915-17.657-17.657-18.266 0 .609-.609.609-.609.609Z"/><defs><linearGradient id="a" x1="273.693" x2="273.693" y1="507.041" y2="67.436" gradientUnits="userSpaceOnUse"><stop stop-color="#F6921E"/><stop offset=".344" stop-color="#F7951D"/><stop offset=".598" stop-color="#F89E1A"/><stop offset=".823" stop-color="#FBAE14"/><stop offset="1" stop-color="#FFC10E"/></linearGradient></defs></svg>