<svg width="256" height="256" viewBox="0 0 256 256" fill="none" xmlns="http://www.w3.org/2000/svg">
<path d="M97.443 174.216C96.3263 172.287 93.8391 171.627 91.9103 172.744L86.9866 175.586L87.4942 171.932C87.7988 169.698 86.2252 167.668 84.0426 167.363C81.8092 167.059 79.7788 168.632 79.4743 170.815L78.1038 180.713L58.0032 192.337V169.14L65.9216 162.998C67.6982 161.627 68.0027 159.09 66.6322 157.313C65.2617 155.536 62.7238 155.232 60.9472 156.602L58.0539 158.887V153.201C58.0539 150.968 56.2266 149.141 53.9932 149.141C51.7598 149.141 49.9325 150.968 49.9325 153.201V158.887L47.0392 156.602C45.2626 155.232 42.7247 155.536 41.3542 157.313C39.9837 159.09 40.2882 161.627 42.0648 162.998L49.9832 169.14V192.337L29.8826 180.713L28.5121 170.815C28.2075 168.582 26.1772 167.059 23.9438 167.363C21.7104 167.668 20.1876 169.698 20.4922 171.932L20.9998 175.586L16.0761 172.744C14.1473 171.627 11.6601 172.287 10.5434 174.216C9.42667 176.145 10.0865 178.632 12.0154 179.748L16.939 182.591L13.5382 183.962C11.457 184.824 10.4419 187.159 11.3048 189.24C12.1677 191.322 14.5026 192.337 16.5837 191.474L25.8219 187.718L45.9225 199.342L25.8219 210.965L16.5837 207.209C14.5026 206.346 12.1169 207.361 11.3048 209.443C10.4419 211.524 11.457 213.909 13.5382 214.722L16.939 216.092L12.0154 218.935C10.0865 220.051 9.42667 222.538 10.5434 224.467C11.6601 226.396 14.1473 227.056 16.0761 225.939L20.9998 223.097L20.4922 226.751C20.1876 228.985 21.7611 231.015 23.9438 231.32C26.1772 231.624 28.2075 230.102 28.5121 227.868L29.8826 217.97L49.9832 206.346V229.543L42.0648 235.685C40.2882 237.056 39.9837 239.594 41.3542 241.37C42.7247 243.147 45.2626 243.451 47.0392 242.081L49.9325 239.797V245.583C49.9325 247.816 51.7598 249.644 53.9932 249.644C56.2266 249.644 58.0539 247.816 58.0539 245.583V239.898L60.9472 242.182C62.7238 243.553 65.2617 243.248 66.6322 241.472C68.0027 239.695 67.6982 237.157 65.9216 235.787L58.0032 229.645V206.448L78.1038 218.072L79.4743 227.97C79.7281 230 81.5046 231.472 83.4842 231.472C85.9207 231.472 87.8495 229.289 87.4942 226.853L86.9866 223.198L91.9103 226.041C93.8391 227.158 96.3263 226.498 97.443 224.569C98.5597 222.64 97.8998 220.153 95.971 219.036L91.0474 216.194L94.4482 214.823C96.5293 213.96 97.5445 211.625 96.6816 209.544C95.8187 207.463 93.4838 206.448 91.4027 207.311L82.1645 211.067L62.0639 199.443L82.1645 187.819C92.0625 191.88 91.8595 191.88 92.9254 191.88C94.5497 191.88 96.0217 190.916 96.6816 189.342C97.5445 187.261 96.5293 184.875 94.4482 184.063L91.0474 182.693L95.971 179.85C97.8998 178.632 98.5597 176.145 97.443 174.216ZM130.436 31.1258C129.32 29.1969 126.833 28.5371 124.904 29.6538L119.98 32.4963L120.488 28.8416C120.792 26.6082 119.219 24.5778 117.036 24.2733C114.803 23.9687 112.772 25.5423 112.468 27.7249L111.097 37.6229L90.9966 49.2468V26.0499L98.915 19.908C100.692 18.5375 100.996 15.9995 99.6256 14.223C98.2552 12.4464 95.7172 12.1419 93.9406 13.5124L91.0474 15.7965V10.0607C91.0474 7.82733 89.22 6 86.9866 6C84.7532 6 82.9259 7.82733 82.9259 10.0607V15.7458L80.0326 13.4616C78.2561 12.0911 75.7181 12.3957 74.3476 14.1722C72.9771 15.9488 73.2817 18.4867 75.0582 19.8572L82.9767 25.9991V49.196L62.876 37.5722L61.404 27.7249C61.0995 25.4915 59.0691 23.9687 56.8357 24.2733C54.6023 24.5778 53.0795 26.6082 53.3841 28.8416L53.8917 32.4963L48.968 29.6538C47.0392 28.5371 44.552 29.1969 43.4353 31.1258C42.3186 33.0546 42.9785 35.5418 44.9073 36.6585L49.8309 39.501L46.4301 40.8715C44.3489 41.7344 43.3338 44.0693 44.1967 46.1505C45.0596 48.2316 47.3945 49.2468 49.4756 48.3839L58.7138 44.6277L78.8144 56.2515L58.7138 67.8754L49.4756 64.1192C47.3945 63.2563 45.0088 64.2715 44.1967 66.3526C43.3338 68.4337 44.3489 70.8194 46.4301 71.6316L49.8309 73.0021L44.9073 75.8446C42.9785 76.9613 42.3186 79.4485 43.4353 81.3773C44.552 83.3062 47.0392 83.966 48.968 82.8493L53.8917 80.0068L53.3841 83.6615C53.0795 85.8949 54.6531 87.9252 56.8357 88.2298C59.0183 88.5343 61.0995 87.0116 61.404 84.7782L62.7745 74.8801L82.8751 63.2563V86.4532L74.9567 92.5951C73.1801 93.9656 72.8756 96.5035 74.2461 98.2801C75.6166 100.057 78.1545 100.361 79.9311 98.9907L82.8244 96.7066V102.392C82.8244 104.625 84.6517 106.452 86.8851 106.452C89.1185 106.452 90.9458 104.625 90.9458 102.392V96.7066L93.8391 98.9907C95.6157 100.361 98.1536 100.057 99.5241 98.2801C100.895 96.5035 100.59 93.9656 98.8135 92.5951L90.8951 86.4532V63.2563L110.996 74.8801L112.366 84.7782C112.62 86.8085 114.397 88.2806 116.376 88.2806C118.813 88.2806 120.741 86.0979 120.386 83.6615L119.879 80.0068L124.802 82.8493C126.731 83.966 129.218 83.3062 130.335 81.3773C131.452 79.4485 130.792 76.9613 128.863 75.8446L123.939 73.0021L127.34 71.6316C129.421 70.7687 130.436 68.4337 129.574 66.3526C128.711 64.2715 126.376 63.2563 124.295 64.1192L115.056 67.8754L94.9558 56.2515L115.056 44.6277C124.954 48.6884 124.751 48.6884 125.817 48.6884C127.442 48.6884 128.914 47.724 129.574 46.1505C130.436 44.0693 129.421 41.6837 127.34 40.8715L123.939 39.501L128.863 36.6585C130.893 35.5926 131.553 33.1054 130.436 31.1258ZM243.985 183.758L235.559 178.886L242.157 176.195C244.238 175.332 245.254 172.998 244.391 170.916C243.528 168.835 241.193 167.82 239.112 168.683L226.676 173.759L198.606 157.567L226.676 141.375L239.112 146.451C241.193 147.313 243.579 146.298 244.391 144.217C245.254 142.136 244.238 139.75 242.157 138.938L235.559 136.248L243.985 131.375C245.913 130.258 246.573 127.771 245.457 125.842C244.34 123.913 241.853 123.254 239.924 124.37L231.498 129.243L232.462 122.188C232.767 119.954 231.193 117.924 229.011 117.619C226.777 117.315 224.747 118.888 224.442 121.071L222.615 134.37L194.545 150.562V118.127L205.154 109.904C206.93 108.533 207.235 105.995 205.865 104.219C204.494 102.442 201.956 102.138 200.179 103.508L194.545 107.874V98.1786C194.545 95.9452 192.718 94.1179 190.484 94.1179C188.251 94.1179 186.424 95.9452 186.424 98.1786V107.874L180.789 103.508C179.013 102.138 176.475 102.442 175.104 104.219C173.734 105.995 174.039 108.533 175.815 109.904L186.424 118.127V150.562L158.354 134.319L156.527 121.02C156.222 118.787 154.192 117.264 151.958 117.569C149.725 117.873 148.202 119.903 148.507 122.137L149.471 129.192L141.045 124.32C139.116 123.203 136.629 123.863 135.512 125.792C134.396 127.72 135.056 130.208 136.984 131.324L145.41 136.197L138.812 138.887C136.731 139.75 135.715 142.085 136.578 144.166C137.441 146.247 139.776 147.263 141.857 146.4L154.293 141.324L182.363 157.516L154.293 173.759L141.857 168.683C139.776 167.82 137.39 168.835 136.578 170.916C135.766 172.998 136.731 175.383 138.812 176.195L145.41 178.886L136.984 183.758C135.056 184.875 134.396 187.362 135.512 189.291C136.629 191.22 139.116 191.88 141.045 190.763L149.471 185.89L148.507 192.946C148.202 195.179 149.776 197.21 151.958 197.514C154.192 197.819 156.222 196.296 156.527 194.063L158.354 180.764L186.424 164.572V197.007L175.815 205.23C174.039 206.6 173.734 209.138 175.104 210.915C176.475 212.691 179.013 212.996 180.789 211.625L186.424 207.26V216.955C186.424 219.188 188.251 221.016 190.484 221.016C192.718 221.016 194.545 219.188 194.545 216.955V207.26L200.179 211.625C201.956 212.996 204.494 212.691 205.865 210.915C207.235 209.138 206.93 206.6 205.154 205.23L194.545 197.007V164.572L222.615 180.764L224.442 194.063C224.696 196.093 226.473 197.565 228.452 197.565C230.889 197.565 232.818 195.382 232.462 192.946L231.498 185.89L239.924 190.763C241.853 191.88 244.34 191.22 245.457 189.291C246.573 187.362 245.913 184.875 243.985 183.758Z" fill="#CAF1FC"/>
<path d="M30.7456 140.258C39.7163 140.258 46.9885 132.986 46.9885 124.015C46.9885 115.044 39.7163 107.772 30.7456 107.772C21.7749 107.772 14.5027 115.044 14.5027 124.015C14.5027 132.986 21.7749 140.258 30.7456 140.258Z" fill="#EEF7FF"/>
<path d="M229.721 42.2928C238.692 42.2928 245.964 35.0206 245.964 26.0498C245.964 17.0791 238.692 9.80691 229.721 9.80691C220.751 9.80691 213.479 17.0791 213.479 26.0498C213.479 35.0206 220.751 42.2928 229.721 42.2928Z" fill="#EEF7FF"/>
<path d="M164.242 83.1539C171.11 83.1539 176.678 77.5861 176.678 70.7179C176.678 63.8497 171.11 58.2819 164.242 58.2819C157.374 58.2819 151.806 63.8497 151.806 70.7179C151.806 77.5861 157.374 83.1539 164.242 83.1539Z" fill="#EEF7FF"/>
<path d="M135.817 245.583C142.685 245.583 148.253 240.015 148.253 233.147C148.253 226.279 142.685 220.711 135.817 220.711C128.949 220.711 123.381 226.279 123.381 233.147C123.381 240.015 128.949 245.583 135.817 245.583Z" fill="#EEF7FF"/>
</svg>
