<svg xmlns="http://www.w3.org/2000/svg" viewBox="0 0 512.001 512.001" style="enable-background:new 0 0 512.001 512.001" xml:space="preserve"><path style="fill:#e1b658" d="M158.17 427.865c-10.863-9.182-20.856-13.601-25.62-15.36-14.933 17.486-19.104 47.197 2.303 70.727 13.337 14.659 29.56 20.512 48.22 17.39 5.452-.912 10.303-2.47 14.229-4.048-8.372-36.413-25.763-57.411-39.132-68.709z"/><path style="fill:#ff5240" d="M328.075 339.91c10.318-14.068 23.01-21.643 28.946-24.646v-25.411l-29.286-18.392-31.762 19.947a5.294 5.294 0 0 1-5.631 0l-31.757-19.947-31.757 19.947a5.294 5.294 0 0 1-5.631 0l-26.464-16.623v71.74c0 1.382-.541 2.71-1.507 3.7l-52.798 54.042c6.017 2.631 14.733 7.289 24.085 15.099 14.485 12.1 33.203 34.329 42.516 72.389.329-.204.512-.323.523-.333.212-.142.434-.269.665-.38.745-.356 72.835-34.949 112.363-60.516-15.687-44.856-4.72-73.96 7.495-90.616z"/><path style="fill:#e1b658" d="M357.022 346.525v-19.196c-15.203 9.253-47.146 36.714-27.457 96.742 30.52-26.001 27.505-76.652 27.468-77.19a5.966 5.966 0 0 1-.011-.356z"/><path style="fill:#129a58" d="m194.734 262.284 29.279 18.391 31.757-19.948a5.294 5.294 0 0 1 5.631 0l31.757 19.948 31.762-19.948a5.294 5.294 0 0 1 5.631 0l26.471 16.624v-20.288l-29.192-18.319-31.787 19.95a5.295 5.295 0 0 1-5.629 0l-31.784-19.95-31.78 19.95a5.295 5.295 0 0 1-5.629 0l-26.488-16.626.001 20.216z"/><path style="fill:#fff" d="M366.254 94.254H185.501c-14.188 0-25.73 11.542-25.73 25.73v60.859c0 14.188 11.542 25.73 25.73 25.73h180.753c14.188 0 25.73-11.542 25.73-25.73v-60.86c0-14.187-11.544-25.729-25.73-25.729z"/><path style="fill:#ff5240" d="M255.817 228.009a5.295 5.295 0 0 1 5.629 0l31.784 19.95 31.787-19.95a5.293 5.293 0 0 1 5.628 0l26.379 16.553v-27.404h-162.29v12.406l29.303 18.394 31.78-19.949z"/><path style="fill:#4f413b" d="M366.254 83.667h-14.211l6.765-45.093c.69-2.644 4.111-17.624-3.928-28.318C349.765 3.45 341.438 0 330.132 0c-11.306 0-19.63 3.45-24.746 10.255-8.039 10.694-4.619 25.674-3.929 28.319l6.764 45.094h-122.72c-20.025 0-36.317 16.292-36.317 36.317v60.86c0 19.57 15.564 35.566 34.963 36.281v127.243l-56.996 58.339c-23.577 24.133-23.632 61.814-.129 87.648 15.463 16.994 32.581 21.646 46.685 21.646 3.98 0 7.719-.371 11.114-.939 15.055-2.519 26.159-9.262 28.282-10.621 6.126-2.941 78.447-37.801 116.816-63.38 40.718-27.146 37.965-86.198 37.691-90.702V217.125c19.398-.716 34.962-16.711 34.962-36.281v-60.86c-.002-20.025-16.294-36.317-36.318-36.317zm-52.383-67.081c3.011-3.981 8.482-5.999 16.26-5.999 7.779 0 13.251 2.019 16.262 5.999 5.492 7.259 2.169 19.322 2.139 19.428a5.181 5.181 0 0 0-.151.686l-7.045 46.967h-22.413l-7.041-46.966a5.536 5.536 0 0 0-.146-.671c-.033-.12-3.357-12.185 2.135-19.444zM183.073 500.62c-18.66 3.122-34.883-2.73-48.22-17.39-21.406-23.529-17.237-53.239-2.303-70.727 4.764 1.76 14.757 6.179 25.62 15.36 13.368 11.297 30.759 32.296 39.13 68.707-3.924 1.58-8.775 3.139-14.227 4.05zm25.145-9.579a5.387 5.387 0 0 0-.665.38c-.013.008-.194.128-.523.333-9.314-38.06-28.031-60.289-42.516-72.389-9.352-7.811-18.067-12.468-24.085-15.099l52.798-54.042a5.292 5.292 0 0 0 1.507-3.7v-71.741l26.464 16.623a5.294 5.294 0 0 0 5.631 0l31.757-19.947 31.757 19.947a5.294 5.294 0 0 0 5.631 0l31.762-19.947 29.286 18.392v25.411c-5.937 3.003-18.628 10.579-28.946 24.646-12.216 16.657-23.182 45.76-7.496 90.616-39.527 25.569-111.617 60.161-112.362 60.517zm13.004-232.348a5.295 5.295 0 0 0 5.629 0l31.78-19.95 31.784 19.95a5.295 5.295 0 0 0 5.629 0l31.787-19.95 29.192 18.319v20.288l-26.471-16.624a5.294 5.294 0 0 0-5.631 0l-31.762 19.948-31.757-19.948a5.294 5.294 0 0 0-5.631 0l-31.757 19.948-29.279-18.391v-20.217l26.487 16.627zm-26.488-29.127V217.16h162.288v27.404l-26.379-16.553a5.293 5.293 0 0 0-5.628 0l-31.787 19.95-31.784-19.95a5.295 5.295 0 0 0-5.629 0l-31.78 19.95-29.301-18.395zm134.831 194.506c-19.689-60.028 12.254-87.489 27.457-96.742v19.196c0 .119.004.238.012.356.036.538 3.051 51.187-27.469 77.19zm62.419-243.229c0 14.188-11.542 25.73-25.73 25.73H185.501c-14.188 0-25.73-11.542-25.73-25.73v-60.86c0-14.188 11.542-25.73 25.73-25.73h180.753c14.188 0 25.73 11.542 25.73 25.73v60.86z"/></svg>