<svg width="256" height="256" viewBox="0 0 256 256" fill="none" xmlns="http://www.w3.org/2000/svg">
<g clip-path="url(#clip0_1_147)">
<path d="M79.0847 213.932C73.6532 209.341 68.6567 207.132 66.2747 206.252C58.8082 214.995 56.7227 229.851 67.4262 241.616C74.0947 248.945 82.2062 251.871 91.5362 250.31C94.2621 249.854 96.6876 249.075 98.6506 248.286C94.4646 230.08 85.7692 219.581 79.0847 213.932Z" fill="#E1B658"/>
<path d="M164.037 169.955C169.196 162.921 175.542 159.133 178.51 157.632V144.926L163.867 135.73L147.986 145.704C147.564 145.969 147.077 146.109 146.578 146.109C146.08 146.109 145.593 145.969 145.171 145.704L129.292 135.73L113.414 145.704C112.992 145.969 112.504 146.109 112.006 146.109C111.508 146.109 111.02 145.969 110.598 145.704L97.3663 137.392V173.262C97.3663 173.953 97.0958 174.617 96.6128 175.112L70.2139 202.133C73.2224 203.449 77.5804 205.778 82.2563 209.683C89.4988 215.733 98.8578 226.847 103.514 245.877C103.679 245.775 103.77 245.716 103.776 245.711C103.882 245.64 103.993 245.576 104.108 245.521C104.481 245.343 140.526 228.046 160.29 215.263C152.446 192.835 157.93 178.283 164.037 169.955Z" fill="#FF5240"/>
<path d="M178.511 173.262V163.664C170.909 168.291 154.938 182.021 164.782 212.035C180.042 199.035 178.535 173.709 178.516 173.44C178.513 173.381 178.511 173.322 178.511 173.262Z" fill="#E1B658"/>
<path d="M97.3667 131.142L112.006 140.337L127.885 130.363C128.306 130.098 128.794 129.958 129.292 129.958C129.79 129.958 130.278 130.098 130.7 130.363L146.579 140.337L162.46 130.363C162.881 130.098 163.369 129.958 163.867 129.958C164.365 129.958 164.853 130.098 165.275 130.363L178.511 138.675V128.531L163.915 119.372L148.021 129.347C147.599 129.611 147.112 129.752 146.614 129.752C146.116 129.752 145.628 129.611 145.207 129.347L129.315 119.372L113.425 129.347C113.003 129.611 112.515 129.752 112.017 129.752C111.52 129.752 111.032 129.611 110.61 129.347L97.3662 121.034L97.3667 131.142Z" fill="#129A58"/>
<path d="M183.127 47.127H92.7502C85.6562 47.127 79.8853 52.8979 79.8853 59.9919V90.4214C79.8853 97.5154 85.6562 103.286 92.7502 103.286H183.127C190.221 103.286 195.992 97.5154 195.992 90.4214V59.9914C195.992 52.8979 190.22 47.127 183.127 47.127Z" fill="white"/>
<path d="M127.908 114.004C128.33 113.74 128.818 113.599 129.315 113.599C129.813 113.599 130.301 113.74 130.723 114.004L146.615 123.979L162.508 114.004C162.93 113.74 163.417 113.599 163.915 113.599C164.413 113.599 164.9 113.74 165.322 114.004L178.512 122.281V108.579H97.3667V114.782L112.018 123.979L127.908 114.004Z" fill="#FF5240"/>
<path d="M183.127 41.8334H176.021L179.404 19.287C179.749 17.965 181.459 10.475 177.44 5.12799C174.882 1.725 170.719 0 165.066 0C159.413 0 155.251 1.725 152.693 5.12749C148.673 10.4745 150.383 17.9645 150.728 19.287L154.11 41.8339H92.7503C82.7378 41.8339 74.5918 49.9799 74.5918 59.9924V90.4223C74.5918 100.207 82.3738 108.205 92.0733 108.563V172.184L63.5753 201.354C51.7869 213.42 51.7594 232.261 63.5108 245.178C71.2423 253.675 79.8013 256.001 86.8533 256.001C88.8433 256.001 90.7128 255.815 92.4103 255.531C99.9378 254.272 105.49 250.9 106.551 250.221C109.614 248.75 145.775 231.32 164.959 218.531C185.318 204.958 183.942 175.432 183.805 173.18V108.562C193.504 108.204 201.286 100.207 201.286 90.4218V59.9919C201.285 49.9794 193.139 41.8334 183.127 41.8334ZM156.935 8.29298C158.441 6.30249 161.176 5.29349 165.065 5.29349C168.955 5.29349 171.691 6.30299 173.196 8.29298C175.942 11.9225 174.281 17.954 174.266 18.007C174.233 18.1195 174.208 18.2341 174.19 18.35L170.668 41.8334H159.461L155.941 18.3505C155.923 18.2372 155.899 18.1252 155.868 18.015C155.851 17.955 154.189 11.9225 156.935 8.29298ZM91.5363 250.31C82.2063 251.871 74.0948 248.945 67.4263 241.615C56.7234 229.85 58.8079 214.995 66.2748 206.251C68.6568 207.131 73.6533 209.341 79.0848 213.931C85.7688 219.58 94.4643 230.079 98.6498 248.285C96.6878 249.075 94.2623 249.854 91.5363 250.31ZM104.109 245.52C103.994 245.575 103.882 245.639 103.776 245.71C103.77 245.714 103.679 245.774 103.515 245.877C98.8578 226.847 89.4993 215.732 82.2568 209.682C77.5808 205.777 73.2233 203.448 70.2143 202.133L96.6133 175.112C97.0965 174.617 97.367 173.953 97.3668 173.262V137.391L110.599 145.703C111.021 145.968 111.508 146.108 112.007 146.108C112.505 146.108 112.992 145.968 113.414 145.703L129.293 135.729L145.171 145.703C145.593 145.968 146.081 146.108 146.579 146.108C147.077 146.108 147.565 145.968 147.987 145.703L163.868 135.729L178.511 144.925V157.631C175.542 159.132 169.197 162.92 164.038 169.954C157.93 178.282 152.447 192.834 160.29 215.262C140.526 228.046 104.481 245.342 104.109 245.52ZM110.611 129.346C111.032 129.611 111.52 129.751 112.018 129.751C112.516 129.751 113.004 129.611 113.425 129.346L129.315 119.371L145.207 129.346C145.629 129.611 146.117 129.751 146.614 129.751C147.112 129.751 147.6 129.611 148.022 129.346L163.915 119.371L178.511 128.531V138.675L165.276 130.363C164.854 130.098 164.366 129.957 163.868 129.957C163.37 129.957 162.882 130.098 162.46 130.363L146.579 140.337L130.701 130.363C130.279 130.098 129.791 129.957 129.293 129.957C128.795 129.957 128.307 130.098 127.885 130.363L112.007 140.337L97.3673 131.141V121.033L110.611 129.346ZM97.3668 114.783V108.58H178.511V122.282L165.321 114.005C164.9 113.741 164.412 113.6 163.914 113.6C163.416 113.6 162.929 113.741 162.507 114.005L146.614 123.98L130.722 114.005C130.3 113.741 129.812 113.6 129.314 113.6C128.817 113.6 128.329 113.741 127.907 114.005L112.017 123.98L97.3668 114.783ZM164.782 212.036C154.938 182.022 170.909 168.291 178.511 163.665V173.263C178.511 173.322 178.513 173.382 178.517 173.441C178.535 173.71 180.042 199.034 164.782 212.036ZM195.992 90.4213C195.992 97.5153 190.221 103.286 183.127 103.286H92.7503C85.6563 103.286 79.8853 97.5153 79.8853 90.4213V59.9914C79.8853 52.8974 85.6563 47.1264 92.7503 47.1264H183.127C190.221 47.1264 195.992 52.8974 195.992 59.9914V90.4213Z" fill="#4F413B"/>
</g>
<defs>
<clipPath id="clip0_1_147">
<rect width="256" height="256" fill="white"/>
</clipPath>
</defs>
</svg>
