<svg width="256" height="256" viewBox="0 0 256 256" fill="none" xmlns="http://www.w3.org/2000/svg">
<path d="M194.508 140.128C194.508 185.656 164.736 204.313 128.012 204.313C91.2886 204.313 61.4912 185.656 61.4912 140.128C61.4912 94.5996 128.012 21.1618 128.012 21.1618C128.012 21.1618 194.508 94.5996 194.508 140.128Z" fill="#60C13D"/>
<path d="M128.012 206.453C108.006 206.453 91.1394 201.049 79.2304 190.823C72.7527 185.267 67.7698 178.284 64.3815 170.091C60.8187 161.465 59 151.37 59 140.128C59 129.47 62.5627 116.477 69.5636 101.517C75.1195 89.6489 82.8678 76.5266 92.5844 62.453C109.127 38.5647 125.87 20.0161 126.044 19.8215C126.518 19.3027 127.24 19 128.012 19C128.785 19 129.507 19.3027 129.981 19.8215C130.155 20.0161 146.897 38.5647 163.416 62.453C173.132 76.505 180.88 89.6489 186.436 101.517C193.462 116.477 197 129.47 197 140.128C197 151.37 195.181 161.465 191.619 170.091C188.23 178.284 183.247 185.267 176.77 190.823C164.886 201.049 148.019 206.453 128.012 206.453ZM128.012 24.7073C123.129 30.2848 109.925 45.8068 96.8697 64.7229C87.2777 78.5803 79.6539 91.5297 74.1977 103.16C67.421 117.58 64.0078 130.011 64.0078 140.128C64.0078 161.033 70.3111 177.052 82.7433 187.753C93.6806 197.157 109.352 202.151 128.012 202.151C146.673 202.151 162.344 197.179 173.282 187.753C185.714 177.052 192.017 161.033 192.017 140.128C192.017 130.032 188.579 117.58 181.802 103.139C176.346 91.4865 168.697 78.5371 159.105 64.6797C146.05 45.7852 132.871 30.2848 128.012 24.7073Z" fill="black"/>
<path d="M128.013 237C126.643 237 125.521 236.027 125.521 234.838V64.3338C125.521 63.1448 126.643 62.172 128.013 62.172C129.383 62.172 130.504 63.1448 130.504 64.3338V234.817C130.504 236.027 129.383 237 128.013 237Z" fill="black"/>
<path d="M128.012 129.708C127.34 129.708 126.642 129.47 126.169 128.994L91.9117 95.9183C90.9899 95.0319 91.0646 93.67 92.111 92.8701C93.1325 92.0702 94.7021 92.1351 95.6239 93.043L129.881 126.119C130.803 127.006 130.728 128.368 129.682 129.167C129.183 129.535 128.61 129.708 128.012 129.708ZM128.012 186.175C127.315 186.175 126.617 185.916 126.119 185.418L77.9597 136.366C77.0628 135.458 77.1874 134.096 78.2338 133.318C79.2802 132.54 80.8498 132.648 81.7467 133.556L129.881 182.608C130.778 183.516 130.653 184.878 129.607 185.656C129.158 186.002 128.585 186.175 128.012 186.175ZM128.012 96.6317C127.365 96.6317 126.742 96.4155 126.244 96.0048C125.272 95.1616 125.272 93.7997 126.244 92.9566L149.464 72.8082C150.435 71.9651 152.005 71.9651 152.977 72.8082C153.948 73.6513 153.948 75.0133 152.977 75.8564L129.756 96.0048C129.283 96.4155 128.635 96.6317 128.012 96.6317ZM130.255 155.953C129.582 155.953 128.884 155.715 128.411 155.239C127.489 154.353 127.589 152.991 128.61 152.191L162.444 125.86C163.465 125.06 165.035 125.146 165.957 126.033C166.879 126.919 166.779 128.281 165.758 129.081L131.924 155.391C131.451 155.758 130.853 155.953 130.255 155.953Z" fill="black"/>
</svg>
