<svg width="256" height="256" viewBox="0 0 256 256" fill="none" xmlns="http://www.w3.org/2000/svg">
<path d="M39.2748 71.0653C35.3243 88.3281 40.5704 107.88 54.8044 122.115C69.0385 136.35 88.5916 141.595 105.854 137.645C109.805 120.382 104.559 100.83 90.3248 86.5949C76.0908 72.3599 56.5376 67.1152 39.2748 71.0653Z" fill="#82D78C"/>
<path d="M39.3042 71.0658L105.884 137.645C109.834 120.383 104.588 100.831 90.3537 86.5954C76.1192 72.3599 56.5665 67.1148 39.3042 71.0658Z" fill="#A0EB87"/>
<path d="M59.9508 8.02709C56.7684 21.9349 60.994 37.6869 72.4626 49.1549C83.9311 60.623 99.6826 64.849 113.59 61.6667C116.773 47.7589 112.547 32.0069 101.079 20.5388C89.6101 9.0708 73.8581 4.84473 59.9508 8.02709Z" fill="#82D78C"/>
<path d="M59.9316 8.02711L113.57 61.6657C116.753 47.7579 112.527 32.006 101.059 20.5384C89.59 9.07082 73.839 4.84428 59.9316 8.02711Z" fill="#A0EB87"/>
<path d="M191.834 41.5156C195.016 55.4234 190.79 71.1754 179.322 82.6434C167.854 94.1115 152.102 98.3375 138.194 95.1552C135.012 81.2474 139.237 65.4954 150.706 54.0274C162.174 42.5593 177.926 38.3332 191.834 41.5156Z" fill="#82D78C"/>
<path d="M191.833 41.5156L138.194 95.1542C135.012 81.2464 139.237 65.4944 150.706 54.0269C162.174 42.5593 177.925 38.3323 191.833 41.5156Z" fill="#A0EB87"/>
<path d="M216.699 100.368C220.649 117.631 215.403 137.183 201.169 151.418C186.935 165.653 167.382 170.898 150.119 166.948C146.169 149.685 151.415 130.133 165.649 115.898C179.884 101.663 199.436 96.4174 216.699 100.368Z" fill="#82D78C"/>
<path d="M216.698 100.368L150.119 166.948C146.169 149.685 151.415 130.133 165.649 115.898C179.884 101.663 199.436 96.4174 216.698 100.368Z" fill="#A0EB87"/>
<path d="M187.471 129.621C185.836 127.986 183.187 127.986 181.552 129.621L130.093 181.081V109.199L164.448 74.8438C166.083 73.2087 166.083 70.5594 164.448 68.9243C162.813 67.2893 160.163 67.2893 158.528 68.9243L130.093 97.3602V91.3161C130.093 79.0177 125.304 67.4548 116.607 58.7575L93.2855 35.4359C91.6504 33.8008 89.0011 33.8008 87.366 35.4359C85.731 37.0709 85.731 39.7203 87.366 41.3553L110.688 64.6769C117.803 71.7923 121.721 81.2535 121.721 91.3161V147.68L70.219 96.1761C68.5839 94.5411 65.9346 94.5411 64.2995 96.1761C62.6645 97.8112 62.6645 100.461 64.2995 102.096L121.721 159.518V224.674C121.721 226.986 123.595 228.86 125.907 228.86C128.219 228.86 130.093 226.986 130.093 224.674V192.919L187.472 135.54C189.106 133.905 189.106 131.257 187.471 129.621Z" fill="#76B580"/>
</svg>
