<svg width="256" height="256" viewBox="0 0 256 256" fill="none" xmlns="http://www.w3.org/2000/svg">
<path d="M127.917 199.846C166.34 199.846 197.489 168.698 197.489 130.274C197.489 91.8506 166.34 60.7021 127.917 60.7021C89.4931 60.7021 58.3447 91.8506 58.3447 130.274C58.3447 168.698 89.4931 199.846 127.917 199.846Z" fill="#FFE940"/>
<path d="M129.132 19.7028L144.809 46.8551C145.351 47.7923 144.673 48.9588 143.594 48.9588H112.244C111.165 48.9588 110.487 47.7923 111.029 46.8551L126.706 19.7028C127.243 18.7657 128.59 18.7657 129.132 19.7028Z" fill="#FFE940"/>
<path d="M201.056 47.5921L194.555 78.2586C194.33 79.3129 193.047 79.7327 192.246 79.0103L168.935 58.047C168.135 57.3246 168.413 56.0068 169.438 55.67L199.25 45.9668C200.275 45.63 201.281 46.533 201.056 47.5921Z" fill="#FFE940"/>
<path d="M237.463 114.294L212.756 133.593C211.907 134.257 210.652 133.754 210.501 132.68L206.142 101.633C205.991 100.564 207.055 99.7345 208.056 100.14L237.121 111.888C238.122 112.293 238.312 113.625 237.463 114.294Z" fill="#FFE940"/>
<path d="M220.556 190.48L189.259 188.674C188.181 188.61 187.576 187.405 188.166 186.502L205.381 160.301C205.972 159.398 207.324 159.476 207.807 160.443L221.893 188.449C222.376 189.411 221.634 190.543 220.556 190.48Z" fill="#FFE940"/>
<path d="M167.256 233.08L142.837 213.415C141.998 212.736 142.203 211.404 143.213 211.013L172.45 199.7C173.455 199.309 174.509 200.158 174.343 201.222L169.526 232.201C169.355 233.27 168.096 233.758 167.256 233.08Z" fill="#FFE940"/>
<path d="M53.8738 48.1241L60.3751 78.7907C60.5996 79.8449 61.8833 80.2647 62.6837 79.5423L85.9948 58.579C86.7952 57.8566 86.517 56.5388 85.4921 56.202L55.6797 46.4988C54.6547 46.1669 53.6492 47.0699 53.8738 48.1241Z" fill="#FFE940"/>
<path d="M18.5216 114.553L42.9406 134.218C43.7801 134.896 45.0394 134.408 45.2053 133.339L50.0228 102.36C50.1887 101.291 49.1393 100.447 48.129 100.838L18.8926 112.151C17.892 112.542 17.6821 113.874 18.5216 114.553Z" fill="#FFE940"/>
<path d="M34.5066 188.923L65.8272 187.551C66.9058 187.502 67.5306 186.306 66.9498 185.394L50.101 158.954C49.5202 158.041 48.1731 158.105 47.6752 159.061L33.2034 186.873C32.7007 187.829 33.4231 188.967 34.5066 188.923Z" fill="#FFE940"/>
<path d="M93.775 234.9L87.2737 204.234C87.0491 203.18 88.0546 202.277 89.0796 202.609L118.892 212.312C119.917 212.644 120.2 213.966 119.395 214.689L96.0836 235.652C95.2832 236.374 93.9995 235.96 93.775 234.9Z" fill="#FFE940"/>
</svg>
