<svg xmlns="http://www.w3.org/2000/svg" width="574" height="128" viewBox="0 0 574 128"><path d="M33.18 0v9.63h7.49v70.71H26.4V26.71h6.7V17H0v9.67h7.49v62.17l12.15 12.41h21v14.33h-7.46V128h35.13v-12.41h-7.49v-14.33h21L94 88.84V26.71h7.49V17H68.38v9.67h6.7v53.67H60.82V9.63h7.49V0z" fill="#900"/><path d="M128.28 23.2h11.3l6.9 33.9c1.5 7.3 2.4 11.6 3.9 20.8h.2c1.4-9.1 2.3-13.4 3.8-20.8l6.5-33.9h10.5l6.8 34.7c1.4 7 2.5 12 3.6 20h.2c1.2-7.7 2.3-12.9 3.7-19.9l7-34.8h10.4l-16.5 74.3h-10.1l-10.6-54.2h-.2L155 97.5h-10.2zm90 74h-11l21.6-74.3h11.3l21.6 74.3H250l-4.8-17.7h-22zm21.7-37c-2.3-8.3-4.1-14.5-5.6-21.5h-.2c-1.6 7.1-3.4 13.2-5.7 21.4L226 69.2h16.4zm30.6-37h12.7l20.1 39.3c2.5 4.8 3.8 7.5 6.3 12.9h.2V23.2h10.7v74h-10.9l-22-41.8c-2.4-4.7-3.7-7.1-6.2-12.5h-.2v54.3h-10.7zm60.9 36.8c0-24.2 10.1-38.2 27.6-38.2 13.7 0 20.9 8.3 23.9 24.4l-10.7 2.2c-2.3-11.4-6.2-15.7-13.5-15.7-8.9 0-15.5 7.3-15.5 27.1 0 20.4 6.2 28.1 16 28.1 8.3 0 13.3-5.5 14-17.5h-12.4v-9.8h23v36.6H375v-9.8h-.2a17.8 17.8 0 0 1-17 11.1c-16.92 0-26.32-14.2-26.32-38.5zm86.39-36.8h11.8v63.4h28.5v10.6h-40.3zm55.8 74h-11l21.6-74.3h11.3l21.6 74.3h-11.8l-4.8-17.7h-22zm21.7-37c-2.3-8.3-4.1-14.5-5.6-21.5h-.2c-1.6 7.1-3.4 13.2-5.7 21.4l-2.5 9.1h16.4zm30.63-37h23.4c12.9 0 22.8 4.8 22.8 18.5 0 10.7-5.9 15.3-11.2 17v.2c6.9 1.6 13 6.3 13 18.1 0 14-10.5 20.2-23.3 20.2H526zm22.6 31.3c8.1 0 12.4-2.5 12.4-10.3s-3.6-10.6-12.2-10.6h-11.2v20.9zm1.5 32.7c8.8 0 12.6-3.9 12.6-11.8 0-8.7-5-11.4-13.7-11.4h-11.4v23.2z" fill="#222"/></svg>