<svg xmlns="http://www.w3.org/2000/svg" viewBox="0 0 472.008 472.008"><path fill="#ffe773" d="M219.898 106.008c0-51.36-41.64-93-93-93s-93 41.64-93 93c0 47.018 35.012 86.233 80.874 92.213 55.283 7.202 105.126-35.638 105.126-92.213z"/><path fill="#fff0a6" d="M134.771 58.583c-25.065 9.609-45.453 29.992-55.129 55.031-9.475 24.518-45.898 18.12-45.743-8.165.3-50.814 41.76-92.088 92.339-92.439 26.375-.182 33.161 36.132 8.533 45.573z"/><path fill="#a4ebfc" d="M357.898 456.008h-63v-177a8 8 0 0 0-16 0v177h-63a8 8 0 0 0 0 16h142a8 8 0 0 0 0-16z"/><path fill="#ff6d7a" d="M430.095 106.008c6.735 0 10.456 7.815 6.21 13.043-46.613 57.399-142.724 175.729-142.421 175.356-3.602 4.435-10.37 4.434-13.972 0L137.491 119.052c-4.246-5.228-.526-13.043 6.21-13.043h286.394z"/><path fill="#fff" d="M126.898 70.008a8 8 0 0 1-8-8v-10a8 8 0 0 1 16 0v10a8 8 0 0 1-8 8zM82.898 114.008h-10a8 8 0 0 1 0-16h10a8 8 0 0 1 0 16z"/><path fill="#fe4f60" d="M436.308 119.048c-39.534 48.683-11.118 13.693-142.42 175.36-3.61 4.43-10.37 4.43-13.98 0l-42.121-51.862c-5.396-6.644-2.294-16.615 5.908-19.063 48.414-14.452 81.595-57.155 86.193-106.583.574-6.171 5.742-10.892 11.939-10.892h88.271c6.73 0 10.45 7.81 6.21 13.04z"/><path fill="#e3f7fc" d="m436.306 119.052-30.508 37.567c-34.48 18.53-61.8 21.32-80.25 20.47-35.389-1.265-56.6-18.58-97.65-15.08-20.18 1.72-36.13 7.62-45.83 11.93l-44.577-54.887c-4.246-5.228-.526-13.043 6.21-13.043h286.394c6.736-.001 10.457 7.814 6.211 13.043z"/><path fill="#caf1fc" d="m436.308 119.048-30.51 37.57c-30.773 16.538-62.854 24.54-96.68 18.66 11.596-17.206 18.81-37.306 20.77-58.378.574-6.171 5.742-10.892 11.939-10.892h88.271c6.73 0 10.45 7.81 6.21 13.04z"/><path fill="#99d856" d="M314.602 201.298a8 8 0 0 1-3.994-10.585c3.084-6.819 58.531-129.434 61.958-137.004a8 8 0 0 1 14.577 6.597l-61.956 136.998a8 8 0 0 1-10.585 3.994z"/><path fill="#befa91" d="M388.898.008c20.43 0 37 16.57 37 37 0 26.988-27.972 44.736-52.25 33.72v-.01c-12.83-5.81-21.75-18.72-21.75-33.71 0-20.43 16.57-37 37-37z"/><path fill="#daffbf" d="M407.971 24.989c-16.285.879-30.554 12.801-34.224 28.712-1.796 7.788-12.212 9.453-16.398 2.646-4.503-7.321-6.353-16.095-5.036-24.919 4.246-28.443 38.859-41.66 60.983-22.232 6.061 5.322 2.729 15.359-5.325 15.793z"/><path fill="#a4ebfc" d="m366.478 106.008-32.19 71.17a123.717 123.717 0 0 1-17.22-.76l31.85-70.41h17.56z"/><path fill="#e84857" d="m334.288 177.178-9.1 20.13a8.011 8.011 0 0 1-7.29 4.7c-5.81 0-9.68-6.009-7.29-11.3l6.46-14.29c5.91.666 11.563.906 17.22.76z"/></svg>