<svg xmlns="http://www.w3.org/2000/svg" viewBox="0 0 480 480"><path fill="#caf1fc" d="M180 331.4c-2.2-3.8-7.1-5.1-10.9-2.9l-9.7 5.6 1-7.2c.6-4.4-2.5-8.4-6.8-9-4.4-.6-8.4 2.5-9 6.8l-2.7 19.5-39.6 22.9v-45.7l15.6-12.1c3.5-2.7 4.1-7.7 1.4-11.2-2.7-3.5-7.7-4.1-11.2-1.4l-5.7 4.5V290c0-4.4-3.6-8-8-8s-8 3.6-8 8v11.2l-5.7-4.5c-3.5-2.7-8.5-2.1-11.2 1.4-2.7 3.5-2.1 8.5 1.4 11.2l15.6 12.1v45.7l-39.6-22.9-2.7-19.5c-.6-4.4-4.6-7.4-9-6.8-4.4.6-7.4 4.6-6.8 9l1 7.2-9.7-5.6c-3.8-2.2-8.7-.9-10.9 2.9-2.2 3.8-.9 8.7 2.9 10.9l9.7 5.6-6.7 2.7c-4.1 1.7-6.1 6.3-4.4 10.4 1.7 4.1 6.3 6.1 10.4 4.4l18.2-7.4 39.6 22.9-39.6 22.9-18.2-7.4c-4.1-1.7-8.8.3-10.4 4.4-1.7 4.1.3 8.8 4.4 10.4l6.7 2.7-9.7 5.6c-3.8 2.2-5.1 7.1-2.9 10.9 2.2 3.8 7.1 5.1 10.9 2.9l9.7-5.6-1 7.2c-.6 4.4 2.5 8.4 6.8 9 4.4.6 8.4-2.4 9-6.8l2.7-19.5 39.6-22.9v45.7l-15.6 12.1c-3.5 2.7-4.1 7.7-1.4 11.2 2.7 3.5 7.7 4.1 11.2 1.4l5.7-4.5V472c0 4.4 3.6 8 8 8s8-3.6 8-8v-11.2l5.7 4.5c3.5 2.7 8.5 2.1 11.2-1.4 2.7-3.5 2.1-8.5-1.4-11.2l-15.6-12.1v-45.7l39.6 22.9 2.7 19.5c.5 4 4 6.9 7.9 6.9 4.8 0 8.6-4.3 7.9-9.1l-1-7.2 9.7 5.6c3.8 2.2 8.7.9 10.9-2.9 2.2-3.8.9-8.7-2.9-10.9l-9.7-5.6 6.7-2.7c4.1-1.7 6.1-6.3 4.4-10.4s-6.3-6.1-10.4-4.4l-18.2 7.4-39.6-22.9 39.6-22.9c19.5 8 19.1 8 21.2 8 3.2 0 6.1-1.9 7.4-5 1.7-4.1-.3-8.8-4.4-10.4l-6.7-2.7 9.7-5.6c3.8-2.4 5.1-7.3 2.9-11.1zM245 49.5c-2.2-3.8-7.1-5.1-10.9-2.9l-9.7 5.6 1-7.2c.6-4.4-2.5-8.4-6.8-9-4.4-.6-8.4 2.5-9 6.8l-2.7 19.5-39.6 22.9V39.5l15.6-12.1c3.5-2.7 4.1-7.7 1.4-11.2-2.7-3.5-7.7-4.1-11.2-1.4l-5.7 4.5V8c0-4.4-3.6-8-8-8s-8 3.6-8 8v11.2l-5.7-4.5c-3.5-2.7-8.5-2.1-11.2 1.4-2.7 3.5-2.1 8.5 1.4 11.2l15.6 12.1v45.7l-39.6-22.9-2.9-19.4c-.6-4.4-4.6-7.4-9-6.8-4.4.6-7.4 4.6-6.8 9l1 7.2-9.7-5.6c-3.8-2.2-8.7-.9-10.9 2.9-2.2 3.8-.9 8.7 2.9 10.9l9.7 5.6-6.7 2.7c-4.1 1.7-6.1 6.3-4.4 10.4 1.7 4.1 6.3 6.1 10.4 4.4l18.2-7.4L143.3 99l-39.6 22.9-18.2-7.4c-4.1-1.7-8.8.3-10.4 4.4-1.7 4.1.3 8.8 4.4 10.4l6.7 2.7-9.7 5.6c-3.8 2.2-5.1 7.1-2.9 10.9 2.2 3.8 7.1 5.1 10.9 2.9l9.7-5.6-1 7.2c-.6 4.4 2.5 8.4 6.8 9 4.3.6 8.4-2.4 9-6.8l2.7-19.5 39.6-22.9v45.7l-15.6 12.1c-3.5 2.7-4.1 7.7-1.4 11.2s7.7 4.1 11.2 1.4l5.7-4.5v11.2c0 4.4 3.6 8 8 8s8-3.6 8-8v-11.2l5.7 4.5c3.5 2.7 8.5 2.1 11.2-1.4 2.7-3.5 2.1-8.5-1.4-11.2l-15.6-12.1v-45.7l39.6 22.9 2.7 19.5c.5 4 4 6.9 7.9 6.9 4.8 0 8.6-4.3 7.9-9.1l-1-7.2 9.7 5.6c3.8 2.2 8.7.9 10.9-2.9 2.2-3.8.9-8.7-2.9-10.9l-9.7-5.6 6.7-2.7c4.1-1.7 6.1-6.3 4.4-10.4-1.7-4.1-6.3-6.1-10.4-4.4l-18.2 7.4L175.1 99l39.6-22.9c19.5 8 19.1 8 21.2 8 3.2 0 6.1-1.9 7.4-5 1.7-4.1-.3-8.8-4.4-10.4l-6.7-2.7 9.7-5.6c4-2.1 5.3-7 3.1-10.9zM468.7 350.2l-16.6-9.6 13-5.3c4.1-1.7 6.1-6.3 4.4-10.4-1.7-4.1-6.3-6.1-10.4-4.4l-24.5 10-55.3-31.9 55.3-31.9 24.5 10c4.1 1.7 8.8-.3 10.4-4.4 1.7-4.1-.3-8.8-4.4-10.4l-13-5.3 16.6-9.6c3.8-2.2 5.1-7.1 2.9-10.9-2.2-3.8-7.1-5.1-10.9-2.9l-16.6 9.6 1.9-13.9c.6-4.4-2.5-8.4-6.8-9-4.4-.6-8.4 2.5-9 6.8l-3.6 26.2-55.3 31.9v-63.9l20.9-16.2c3.5-2.7 4.1-7.7 1.4-11.2s-7.7-4.1-11.2-1.4l-11.1 8.6v-19.1c0-4.4-3.6-8-8-8s-8 3.6-8 8v19.1l-11.1-8.6c-3.5-2.7-8.5-2.1-11.2 1.4-2.7 3.5-2.1 8.5 1.4 11.2l20.9 16.2v63.9l-55.3-32-3.6-26.2c-.6-4.4-4.6-7.4-9-6.8-4.4.6-7.4 4.6-6.8 9l1.9 13.9-16.6-9.6c-3.8-2.2-8.7-.9-10.9 2.9-2.2 3.8-.9 8.7 2.9 10.9l16.6 9.6-13 5.3c-4.1 1.7-6.1 6.3-4.4 10.4 1.7 4.1 6.3 6.1 10.4 4.4l24.5-10 55.3 31.9-55.3 32-24.5-10c-4.1-1.7-8.8.3-10.4 4.4s.3 8.8 4.4 10.4l13 5.3-16.6 9.6c-3.8 2.2-5.1 7.1-2.9 10.9 2.2 3.8 7.1 5.1 10.9 2.9l16.6-9.6-1.9 13.9c-.6 4.4 2.5 8.4 6.8 9 4.4.6 8.4-2.4 9-6.8l3.6-26.2 55.3-31.9v63.9l-20.9 16.2c-3.5 2.7-4.1 7.7-1.4 11.2 2.7 3.5 7.7 4.1 11.2 1.4l11.1-8.6v19.1c0 4.4 3.6 8 8 8s8-3.6 8-8v-19.1l11.1 8.6c3.5 2.7 8.5 2.1 11.2-1.4 2.7-3.5 2.1-8.5-1.4-11.2l-20.9-16.2v-63.9l55.3 31.9 3.6 26.2c.5 4 4 6.9 7.9 6.9 4.8 0 8.6-4.3 7.9-9.1l-1.9-13.9 16.6 9.6c3.8 2.2 8.7.9 10.9-2.9 2.2-3.8.9-8.7-2.9-10.9z"/><circle cx="48.6" cy="232.5" r="32" fill="#eef7ff"/><circle cx="440.6" cy="39.5" r="32" fill="#eef7ff"/><circle cx="311.6" cy="127.5" r="24.5" fill="#eef7ff"/><circle cx="255.6" cy="447.5" r="24.5" fill="#eef7ff"/></svg>